<svg width="46" height="46" viewBox="0 0 46 46" fill="none" xmlns="http://www.w3.org/2000/svg">
<path d="M17.2499 36.4166C7.66659 39.2916 7.66659 31.6249 3.83325 30.6666M30.6666 42.1666V34.7491C30.7385 33.8352 30.615 32.9164 30.3044 32.0539C29.9937 31.1913 29.503 30.4048 28.8649 29.7466C34.8833 29.0758 41.2083 26.7949 41.2083 16.3299C41.2078 13.6539 40.1784 11.0806 38.3333 9.14242C39.207 6.80123 39.1452 4.21342 38.1608 1.91659C38.1608 1.91659 35.8991 1.24575 30.6666 4.75325C26.2736 3.56266 21.6429 3.56266 17.2499 4.75325C12.0174 1.24575 9.75575 1.91659 9.75575 1.91659C8.77131 4.21342 8.70953 6.80123 9.58325 9.14242C7.72433 11.0949 6.69392 13.6916 6.70825 16.3874C6.70825 26.7758 13.0333 29.0566 19.0516 29.8041C18.421 30.4557 17.9347 31.2328 17.6243 32.0848C17.3138 32.9368 17.1863 33.8445 17.2499 34.7491V42.1666" stroke="#E8F7FF" stroke-width="2" stroke-linecap="round" stroke-linejoin="round"/>
</svg>
