<svg width="46" height="46" viewBox="0 0 46 46" fill="none" xmlns="http://www.w3.org/2000/svg">
<g clip-path="url(#clip0_77_11)">
<path d="M5.39681 0.492432C2.27002 0.492432 0 2.64935 0 5.619C0 8.58765 2.22498 10.7426 5.28871 10.7426C6.87813 10.7426 8.24735 10.2271 9.24924 9.25224C10.2101 8.31641 10.7396 7.02626 10.7386 5.59598C10.6685 2.5913 8.47155 0.492432 5.39681 0.492432ZM7.854 7.81796C7.23345 8.4215 6.34566 8.74078 5.28871 8.74078C3.35399 8.74078 2.00178 7.45764 2.00178 5.619C2.00178 3.75034 3.366 2.49422 5.39681 2.49422C7.38158 2.49422 8.69275 3.73032 8.73779 5.62C8.73679 6.48277 8.42351 7.26247 7.854 7.81796Z" fill="#E8F7FF"/>
<path d="M0.959961 45.5076H9.95598V12.4331H0.959961V45.5076ZM2.96175 14.4349H7.9542V43.5048H2.96175V14.4349Z" fill="#E8F7FF"/>
<path d="M33.6781 12.4331C29.5063 12.4331 26.9521 13.8734 25.4728 15.2276L25.1915 12.4331H15.0134V45.5066H24.9813V28.1241C24.9813 27.3754 25.2846 25.821 25.4748 25.4107C26.6788 22.8174 28.3033 22.8174 30.7635 22.8174C33.597 22.8174 35.9911 25.4747 35.9911 28.6195V45.5086H46V26.8219C46 16.9351 39.6124 12.4331 33.6781 12.4331ZM43.9983 43.5058H37.9929V28.6185C37.9929 24.3878 34.682 20.8146 30.7635 20.8146C28.2492 20.8146 25.4007 20.8146 23.6581 24.5679C23.2988 25.3436 22.9785 27.2023 22.9785 28.1241V43.5058H17.0152V14.4349H23.3809L23.7892 18.4825H25.4297L25.723 18.0091C26.3906 16.9341 28.5014 14.4339 33.6781 14.4339C38.6485 14.4339 43.9983 18.3093 43.9983 26.8189V43.5058V43.5058Z" fill="#E8F7FF"/>
</g>
<defs>
<clipPath id="clip0_77_11">
<rect width="46" height="46" fill="white"/>
</clipPath>
</defs>
</svg>
