<svg width="36" height="32" viewBox="0 0 36 32" fill="none" xmlns="http://www.w3.org/2000/svg">
<path d="M9 24L1 16L9 8" stroke="#F4B844" stroke-width="2" stroke-linecap="round" stroke-linejoin="round"/>
<path d="M9.492 11.6H10.812V18.8H12.984V20H9.492V11.6ZM15.4421 20.12C14.8021 20.12 14.3141 19.94 13.9781 19.58C13.6421 19.212 13.4741 18.688 13.4741 18.008V13.592C13.4741 12.912 13.6421 12.392 13.9781 12.032C14.3141 11.664 14.8021 11.48 15.4421 11.48C16.0821 11.48 16.5701 11.664 16.9061 12.032C17.2421 12.392 17.4101 12.912 17.4101 13.592V14.312H16.1621V13.508C16.1621 12.956 15.9341 12.68 15.4781 12.68C15.0221 12.68 14.7941 12.956 14.7941 13.508V18.104C14.7941 18.648 15.0221 18.92 15.4781 18.92C15.9341 18.92 16.1621 18.648 16.1621 18.104V16.46H15.5021V15.26H17.4101V18.008C17.4101 18.688 17.2421 19.212 16.9061 19.58C16.5701 19.94 16.0821 20.12 15.4421 20.12Z" fill="#F4B844"/>
<path d="M24 8L18 24" stroke="#F4B844" stroke-width="2" stroke-linecap="round" stroke-linejoin="round"/>
<path d="M27 24L35 16L27 8" stroke="#F4B844" stroke-width="2" stroke-linecap="round" stroke-linejoin="round"/>
</svg>
