<svg width="469" height="445" viewBox="0 0 469 445" fill="none" xmlns="http://www.w3.org/2000/svg">
<path d="M172.537 427.975C171.086 426.731 167.863 422.793 170.35 418.243C171.262 416.574 173.2 415.745 174.952 415.009C176.754 414.401 178.453 413.52 179.989 412.398C182.725 410.066 183.471 406.179 185.295 403.07C187.368 399.515 191.254 396.852 195.369 397.039C200.063 397.246 203.991 401.091 205.732 405.464C207.474 409.838 207.577 414.709 207.619 419.435C207.619 422.057 207.515 425 205.598 426.772C203.68 428.545 201.162 428.42 198.768 428.348L173.066 427.55" fill="#F5F5F5"/>
<path d="M221.682 357.303H154.1L166.277 429.902C166.531 431.414 167.209 432.822 168.23 433.965C169.252 435.108 170.576 435.938 172.05 436.359L172.278 436.421C172.485 436.473 172.682 436.545 172.889 436.576C173.34 436.669 173.798 436.724 174.257 436.742V436.804L174.589 436.753H204.717C205.27 436.755 205.823 436.7 206.365 436.587C208.124 436.317 209.746 435.478 210.981 434.197C212.217 432.916 212.998 431.266 213.205 429.498L219.071 379.482L219.34 377.492L221.662 357.677L221.682 357.303ZM208.935 403.609H202.001L202.696 382.539H210.738L208.935 403.609ZM211.412 382.539H218.055L215.578 403.609H209.608L211.412 382.539ZM191.596 426.969L191.171 408.667H201.172L200.561 426.969H191.596ZM180.797 408.667H190.498L190.922 426.969H182.217L180.797 408.667ZM181.543 426.969H173.408C172.641 422.026 171.635 415.569 170.537 408.667H180.123L181.543 426.969ZM180.445 403.609L178.807 382.539H189.938L190.425 403.609H180.445ZM191.099 403.609L190.612 382.539H202.074L201.369 403.609H191.099ZM190.498 377.492L190.052 357.977H202.882L202.209 377.492H190.498ZM189.824 377.492H178.372L176.859 357.977H189.295L189.824 377.492ZM177.74 377.492H165.635C165.199 374.798 164.795 372.248 164.432 369.947C163.168 362.06 162.702 359.096 162.432 357.977H176.185L177.74 377.492ZM178.133 382.539L179.771 403.609H169.791C169.459 401.474 169.117 399.308 168.754 397.142C167.967 392.167 167.189 387.203 166.453 382.539H178.133ZM169.044 403.609H162.526L158.991 382.539H165.728C166.775 389.048 167.925 396.303 169.044 403.609ZM169.842 408.667C170.879 414.999 171.812 421.238 172.713 426.969H166.443L163.334 408.667H169.842ZM201.203 426.969L201.815 408.667H208.489L206.924 426.969H201.203ZM202.851 377.492L203.494 357.977H212.821L211.163 377.492H202.851ZM161.79 357.977C162.049 359.387 163.282 367.066 164.899 377.492H158.162L154.898 357.977H161.79ZM212.832 426.969H207.65L209.204 408.667H215.018L212.832 426.969ZM218.635 377.492H211.826L213.495 357.977H220.926L218.635 377.492Z" fill="#E0E0E0"/>
<path d="M396.416 30.3004L292.948 47.8379L304.77 117.587L408.238 100.049L396.416 30.3004Z" fill="#EBEBEB"/>
<path d="M396.427 30.3245C396.189 30.7131 395.919 31.0807 395.619 31.423L393.162 34.4285L384.001 45.4038L353.417 81.47L353.168 81.7705L352.826 81.584L351.997 81.1176L310.148 57.7783L297.556 50.6065L294.146 48.6166C293.737 48.4008 293.348 48.1476 292.985 47.8601C293.42 48.0149 293.84 48.2092 294.239 48.4404L297.732 50.2748L310.511 57.1875L352.484 80.2885L353.303 80.7445L352.712 80.8585L383.514 44.9686L392.903 34.1902L395.494 31.2987C395.775 30.9464 396.087 30.6203 396.427 30.3245V30.3245Z" fill="#FAFAFA"/>
<path d="M304.811 117.609C304.583 117.474 310.739 106.592 318.563 93.316C326.388 80.0399 332.917 69.3652 333.145 69.4792C333.373 69.5932 327.217 80.4856 319.392 93.772C311.568 107.058 304.987 117.744 304.811 117.609Z" fill="#FAFAFA"/>
<path d="M367.356 62.8152C367.532 62.6183 376.829 70.8161 388.084 81.1074C399.339 91.3987 408.449 99.8763 408.242 100.125C408.034 100.374 398.769 92.1345 387.514 81.8432C376.259 71.552 367.18 62.9914 367.356 62.8152Z" fill="#FAFAFA"/>
<path d="M81.4343 217.057L28.9205 221.725L32.0673 257.123L84.581 252.455L81.4343 217.057Z" fill="#F5F5F5"/>
<path d="M81.4182 217.071C81.2925 217.259 81.1426 217.429 80.9726 217.578L79.6253 218.998L74.5988 224.128L57.8509 240.97L57.7161 241.104L57.5503 241.001L57.1565 240.731L37.1336 227.383L31.0914 223.237L29.4643 222.107C29.2695 221.982 29.0857 221.839 28.915 221.682C29.1252 221.778 29.3264 221.893 29.5161 222.024L31.1951 223.061L37.3201 227.03L57.4259 240.265L57.8198 240.524H57.5192L74.3604 223.786L79.5424 218.76L80.9518 217.413C81.099 217.288 81.2548 217.173 81.4182 217.071V217.071Z" fill="#E0E0E0"/>
<path d="M32.0553 257.127C31.9517 257.054 35.465 251.852 39.9111 245.509C44.3572 239.166 48.0571 234.109 48.2022 234.161C48.3473 234.212 44.7925 239.436 40.3464 245.778C35.9003 252.121 32.159 257.199 32.0553 257.127Z" fill="#E0E0E0"/>
<path d="M65.572 232.171C65.6756 232.077 70.0077 236.555 75.2414 242.151C80.4752 247.747 84.6621 252.37 84.5689 252.463C84.4756 252.556 80.1435 248.079 74.8994 242.483C69.6553 236.886 65.4787 232.264 65.572 232.171Z" fill="#E0E0E0"/>
<path d="M454.485 178.89C454.485 178.89 454.485 178.61 454.609 178.092C454.734 177.574 454.827 176.797 454.993 175.812C455.335 173.801 455.843 170.889 456.485 167.158C457.802 159.696 459.677 149.011 461.968 136.005L462.134 136.243L399.743 125.112L400.044 124.905C397.287 140.202 394.675 154.732 392.333 167.749L392.147 167.479L437.043 175.646L449.904 178.009L453.324 178.652L454.205 178.828L454.516 178.9H454.226L453.366 178.766L449.987 178.185L437.188 175.957L392.095 167.987H391.856V167.749C394.188 154.732 396.779 140.191 399.515 124.894L399.567 124.646H399.826L462.196 135.88H462.403V136.087L456.693 167.334C456.009 171.034 455.47 173.926 455.097 175.916C454.91 176.879 454.775 177.626 454.672 178.154C454.568 178.683 454.485 178.89 454.485 178.89Z" fill="#E0E0E0"/>
<path d="M462.165 136.046C461.949 136.243 461.712 136.417 461.46 136.564L459.387 137.953L451.645 142.99L425.964 159.427C425.259 159.303 425.767 159.427 425.601 159.354V159.303L425.518 159.189L425.352 158.971L425.01 158.525L424.347 157.644C423.901 157.054 423.466 156.473 423.02 155.903L420.44 152.483L415.569 146.026L407.34 135.072L401.826 127.662L400.344 125.589C400.166 125.358 400.003 125.116 399.857 124.864C400.066 125.068 400.256 125.29 400.427 125.527L401.982 127.496L407.63 134.813L415.921 145.695L420.823 152.131L423.404 155.54L424.73 157.292L425.394 158.173L425.736 158.608L425.902 158.836L425.985 158.94V159.002C425.839 159.002 426.337 159.075 425.653 159.002L451.397 142.689L459.232 137.798L461.367 136.481C461.895 136.181 462.165 136.036 462.165 136.046Z" fill="#E0E0E0"/>
<path d="M417.124 147.736C417.217 147.85 411.662 152.452 404.687 158.007C397.712 163.562 392.033 167.977 391.95 167.863C391.867 167.749 397.412 163.158 404.386 157.603C411.361 152.048 417.03 147.622 417.124 147.736Z" fill="#E0E0E0"/>
<path d="M454.796 179.47C454.672 179.543 451.055 173.159 446.723 165.231C442.39 157.302 438.981 150.814 439.105 150.721C439.229 150.628 442.846 157.033 447.179 164.961C451.511 172.889 454.92 179.398 454.796 179.47Z" fill="#E0E0E0"/>
<path d="M177.605 259.645V271.688H125.786C124.189 271.688 122.657 271.053 121.528 269.924C120.399 268.795 119.764 267.263 119.764 265.666V265.666C119.764 264.069 120.399 262.538 121.528 261.409C122.657 260.279 124.189 259.645 125.786 259.645" fill="#E0E0E0"/>
<path d="M160.453 262.164H177.605V269.159H160.453C159.551 269.159 158.687 268.801 158.049 268.164C157.412 267.526 157.053 266.661 157.053 265.76V265.553C157.056 264.653 157.416 263.791 158.053 263.156C158.69 262.52 159.553 262.164 160.453 262.164V262.164Z" fill="#FAFAFA"/>
<path d="M177.605 247.592V259.645H125.786C124.189 259.645 122.657 259.011 121.528 257.882C120.399 256.752 119.764 255.221 119.764 253.624V253.624C119.764 252.026 120.398 250.493 121.527 249.362C122.656 248.231 124.188 247.595 125.786 247.592H177.605Z" fill="#F5F5F5"/>
<path d="M160.453 250.121H177.605V257.116H160.453C159.551 257.116 158.687 256.758 158.049 256.121C157.412 255.483 157.053 254.618 157.053 253.717V253.51C157.056 252.61 157.416 251.748 158.053 251.113C158.69 250.477 159.553 250.121 160.453 250.121V250.121Z" fill="#E0E0E0"/>
<path d="M140.202 228.274L131.983 247.592H137.269L140.927 237.28L140.202 228.274Z" fill="#E0E0E0"/>
<path d="M165.458 210.79L168.64 247.592H141.756L138.803 210.79H165.458Z" fill="#EBEBEB"/>
<path d="M162.837 213.713L165.614 244.545L145.436 244.804L142.71 213.536L162.837 213.713Z" fill="#FAFAFA"/>
<path d="M158.556 217.982L160.132 239.197H149.374L147.477 217.982H158.556Z" fill="#E0E0E0"/>
<path d="M468.673 436.805C468.673 436.96 363.75 437.074 234.347 437.074C104.944 437.074 0 436.95 0 436.805C0 436.66 104.903 436.535 234.347 436.535C363.791 436.535 468.673 436.66 468.673 436.805Z" fill="#263238"/>
<path d="M302.489 0.248779H22.9041V189.907H302.489V0.248779Z" fill="#FAFAFA"/>
<path d="M303.774 190.052H23.7539V0.103516H303.774V190.052ZM303.567 0.248609H23.9508V189.907H303.557" fill="#FAFAFA"/>
<path d="M303.774 190.052H23.7539V0.103516H303.774V190.052ZM303.567 0.248609H23.9508V189.907H303.557" fill="#FAFAFA"/>
<path d="M303.66 0.217773H23.8679V19.0178H303.66V0.217773Z" fill="#E8B12B"/>
<g style="mix-blend-mode:multiply">
<path d="M303.66 160.888H23.8679V190.052H303.66V160.888Z" fill="#EBEBEB"/>
</g>
<path d="M76.9721 175.004H79.2832L80.0087 176.517H80.5062L78.195 171.687H78.0603L75.7699 176.517H76.2674L76.9721 175.004ZM78.1225 172.599L79.0656 174.548H77.1897L78.1225 172.599Z" fill="#263238"/>
<path d="M80.8482 177.543H75.3761V177.926H80.8482V177.543Z" fill="#263238"/>
<path d="M42.9788 171.418H42.6057C42.0833 171.457 41.5952 171.693 41.2395 172.077C40.8838 172.462 40.6869 172.967 40.6884 173.49C40.9452 175.019 41.6073 176.451 42.6057 177.636C42.6057 177.636 42.7508 177.885 42.9788 177.636C43.9815 176.453 44.6442 175.02 44.8961 173.49C44.8976 172.967 44.7006 172.462 44.3449 172.077C43.9892 171.693 43.5011 171.457 42.9788 171.418ZM42.7922 174.745C42.5667 174.745 42.3463 174.678 42.1589 174.552C41.9714 174.427 41.8253 174.249 41.739 174.041C41.6527 173.832 41.6301 173.603 41.6741 173.382C41.7181 173.161 41.8267 172.958 41.9861 172.798C42.1455 172.639 42.3487 172.53 42.5698 172.486C42.791 172.442 43.0202 172.465 43.2285 172.551C43.4368 172.638 43.6148 172.784 43.7401 172.971C43.8654 173.159 43.9322 173.379 43.9322 173.604C43.9336 173.755 43.9051 173.903 43.8483 174.042C43.7915 174.181 43.7076 174.308 43.6014 174.414C43.4953 174.52 43.3691 174.604 43.2301 174.661C43.0912 174.717 42.9423 174.746 42.7922 174.745Z" fill="#263238"/>
<path d="M68.5982 176.237C68.5982 176.548 68.4748 176.845 68.2552 177.065C68.0356 177.285 67.7377 177.408 67.4271 177.408C67.1165 177.408 66.8186 177.285 66.599 177.065C66.3794 176.845 66.256 176.548 66.256 176.237V172.454C66.256 172.254 66.3357 172.061 66.4776 171.919C66.6195 171.777 66.8119 171.698 67.0126 171.698C67.2132 171.698 67.4056 171.777 67.5475 171.919C67.6894 172.061 67.7691 172.254 67.7691 172.454V175.667C67.7534 175.767 67.7024 175.858 67.6255 175.924C67.5485 175.99 67.4506 176.026 67.3494 176.026C67.2482 176.026 67.1503 175.99 67.0733 175.924C66.9964 175.858 66.9454 175.767 66.9297 175.667V173.19H66.6498V175.553V175.667C66.6746 175.834 66.7583 175.986 66.8857 176.096C67.013 176.206 67.1757 176.267 67.3442 176.268C67.5121 176.265 67.6737 176.204 67.8007 176.094C67.9276 175.984 68.0118 175.833 68.0386 175.667V175.667V175.605C68.0376 175.588 68.0376 175.57 68.0386 175.553V172.444C68.0386 172.169 67.9294 171.905 67.735 171.711C67.5407 171.517 67.2771 171.407 67.0022 171.407C66.7273 171.407 66.4637 171.517 66.2694 171.711C66.075 171.905 65.9658 172.169 65.9658 172.444V176.392C65.9965 176.755 66.1621 177.092 66.4299 177.338C66.6976 177.584 67.048 177.721 67.4116 177.721C67.7752 177.721 68.1255 177.584 68.3933 177.338C68.661 177.092 68.8266 176.755 68.8573 176.392V176.392V173.19H68.5775L68.5982 176.237Z" fill="#263238"/>
<path d="M56.1408 173.377L55.1045 171.179L54.0681 173.377L51.6429 173.729L53.3944 175.439L52.897 177.854L55.0423 176.714L57.2083 177.854L56.7938 175.439L58.566 173.708L56.1408 173.377ZM56.7523 177.211L55.0423 176.31L53.3426 177.211L53.6535 175.408V175.315L52.2855 173.978L54.2132 173.708L55.063 171.988L55.9128 173.708L57.8094 173.988L56.5036 175.263L56.431 175.325L56.7523 177.211Z" fill="#263238"/>
<path d="M98.788 168.526H98.4357V179.771H98.788V168.526Z" fill="#263238"/>
<path d="M91.9065 172.465H87.4293V177.232H91.9065V172.465Z" fill="#263238"/>
<path d="M88.8492 171.345V171.718H90.497V171.345H91.9065V172.081H87.4293V171.345H88.8492Z" fill="#263238"/>
<path d="M90.497 170.982H88.8491V171.345H90.497V170.982Z" fill="#263238"/>
<path d="M90.497 171.345H88.8491V171.708H90.497V171.345Z" fill="#263238"/>
<path d="M108.924 175.024L110.292 173.646L110.458 173.812L108.924 175.356L107.38 173.812L107.545 173.646L108.924 175.024Z" fill="#263238"/>
<path d="M277.564 9.82495H281.44V9.61767H277.564H281.44V9.4104H277.564V9.82495Z" fill="#263238"/>
<path d="M296.913 7.82461L296.623 7.53442L294.83 9.32737L293.037 7.53442L292.747 7.82461L294.54 9.61755L292.747 11.4105L293.037 11.7007L294.83 9.90774L296.623 11.7007L296.913 11.4105L295.12 9.61755L296.913 7.82461Z" fill="#263238"/>
<path d="M284.922 11.763H289.265V7.47241H284.974L284.922 11.763ZM285.337 7.8766H288.799V11.3485H285.337V7.8766Z" fill="#263238"/>
<path d="M297.338 61.9134C297.336 61.5189 297.182 61.1405 296.908 60.8568C296.634 60.5731 296.261 60.4059 295.867 60.3899H290.084C289.523 60.3899 288.985 60.6126 288.589 61.0091C288.192 61.4056 287.969 61.9434 287.969 62.5041C287.969 63.0648 288.192 63.6026 288.589 63.9991C288.985 64.3956 289.523 64.6183 290.084 64.6183H294.737V64.2038H290.301C290.077 64.2038 289.854 64.1595 289.647 64.0736C289.439 63.9877 289.251 63.8617 289.092 63.7029C288.933 63.5441 288.807 63.3556 288.721 63.1481C288.636 62.9407 288.591 62.7183 288.591 62.4937C288.591 62.2692 288.636 62.0468 288.721 61.8393C288.807 61.6319 288.933 61.4434 289.092 61.2846C289.251 61.1258 289.439 60.9998 289.647 60.9139C289.854 60.8279 290.077 60.7837 290.301 60.7837H295.836C296.13 60.7837 296.412 60.9005 296.62 61.1085C296.828 61.3165 296.945 61.5985 296.945 61.8926C296.945 62.1868 296.828 62.4688 296.62 62.6768C296.412 62.8847 296.13 63.0016 295.836 63.0016H291.141C291.003 62.9678 290.879 62.8898 290.789 62.7794C290.7 62.669 290.648 62.5323 290.643 62.3901C290.645 62.2455 290.697 62.1059 290.789 61.9946C290.882 61.8833 291.009 61.8071 291.151 61.7786H294.758V61.3641H291.141C290.866 61.3641 290.602 61.4733 290.408 61.6676C290.214 61.862 290.104 62.1256 290.104 62.4005C290.104 62.6753 290.214 62.9389 290.408 63.1333C290.602 63.3277 290.866 63.4369 291.141 63.4369H295.887C296.279 63.4182 296.648 63.2495 296.918 62.9658C297.188 62.6821 297.339 62.3052 297.338 61.9134V61.9134Z" fill="#263238"/>
<path d="M36.5843 6.42554V11.6075H35.9832L32.874 7.77283V11.6075H32.1382V6.42554H32.7393L35.8484 10.2602V6.42554H36.5843Z" fill="white"/>
<path d="M41.5694 9.85591H38.4602C38.5052 10.1727 38.6632 10.4626 38.9051 10.6721C39.147 10.8816 39.4564 10.9966 39.7764 10.9959C39.9871 11.003 40.1968 10.965 40.3916 10.8846C40.5864 10.8042 40.7618 10.6831 40.9061 10.5296L41.2999 10.9856C41.1032 11.1959 40.8634 11.3613 40.5969 11.4704C40.3304 11.5795 40.0434 11.6298 39.7557 11.6178C39.4855 11.6336 39.215 11.5932 38.9612 11.4993C38.7074 11.4053 38.4758 11.2598 38.281 11.0718C38.0863 10.8839 37.9326 10.6576 37.8296 10.4073C37.7267 10.157 37.6767 9.88811 37.6829 9.61754C37.6729 9.35665 37.7165 9.09649 37.8112 8.85316C37.9058 8.60984 38.0493 8.38853 38.233 8.20295C38.4166 8.01737 38.6364 7.87148 38.8787 7.77431C39.121 7.67714 39.3807 7.63076 39.6417 7.63804C39.9032 7.63023 40.1634 7.67721 40.4057 7.77594C40.6479 7.87467 40.8669 8.02299 41.0484 8.21135C41.2299 8.39972 41.3701 8.62398 41.4598 8.86972C41.5495 9.11546 41.5868 9.37724 41.5694 9.63826C41.5745 9.71072 41.5745 9.78345 41.5694 9.85591V9.85591ZM38.4602 9.34808H40.9579C40.9295 9.0365 40.7856 8.74679 40.5546 8.53584C40.3235 8.3249 40.0219 8.20794 39.7091 8.20794C39.3962 8.20794 39.0946 8.3249 38.8635 8.53584C38.6325 8.74679 38.4886 9.0365 38.4602 9.34808V9.34808Z" fill="white"/>
<path d="M48.3368 7.66919L46.8859 11.566H46.2123L45.0826 8.6123L43.9426 11.566H43.2689L41.818 7.66919H42.4916L43.6213 10.7783L44.7924 7.66919H45.3935L46.5439 10.7783L47.7047 7.66919H48.3368Z" fill="white"/>
<path d="M54.8661 10.9338V11.566H51.1248V6.38403H54.7625V7.01623H51.8606V8.60189H54.4412V9.22373H51.8606V10.8923L54.8661 10.9338Z" fill="white"/>
<path d="M62.4213 9.32744V11.566H61.7062V9.41035C61.7062 8.64343 61.3435 8.27033 60.6698 8.27033C60.503 8.26236 60.3365 8.29149 60.1822 8.35561C60.028 8.41973 59.8899 8.51725 59.7779 8.64115C59.6659 8.76505 59.5828 8.91224 59.5345 9.07213C59.4862 9.23202 59.474 9.40063 59.4987 9.56581V11.566H58.794V9.41035C58.794 8.64343 58.4312 8.27033 57.7576 8.27033C57.5907 8.26236 57.4242 8.29149 57.27 8.35561C57.1158 8.41973 56.9777 8.51725 56.8657 8.64115C56.7537 8.76505 56.6705 8.91224 56.6223 9.07213C56.574 9.23202 56.5617 9.40063 56.5865 9.56581V11.566H55.8817V7.66923H56.5554V8.2496C56.7139 8.0465 56.9193 7.8848 57.1539 7.77832C57.3885 7.67184 57.6454 7.62374 57.9027 7.63814C58.1734 7.61729 58.4444 7.67336 58.6846 7.79988C58.9248 7.9264 59.1244 8.11823 59.2603 8.35324C59.4325 8.11945 59.6598 7.93183 59.9219 7.80707C60.1841 7.68231 60.4731 7.62428 60.7631 7.63814C60.9902 7.61048 61.2206 7.63543 61.4366 7.71103C61.6525 7.78663 61.8482 7.91087 62.0085 8.07415C62.1688 8.23744 62.2893 8.43538 62.3609 8.6527C62.4325 8.87001 62.4532 9.10087 62.4213 9.32744V9.32744Z" fill="white"/>
<path d="M66.7949 9.21335V11.5659H66.1316V11.0581C65.9814 11.2516 65.7851 11.4043 65.5605 11.5021C65.3359 11.5999 65.0904 11.6396 64.8465 11.6178C63.9655 11.6178 63.4059 11.141 63.4059 10.4674C63.4059 9.79373 63.8101 9.32735 64.9708 9.32735H66.0901V9.18226C66.0901 8.59152 65.7481 8.24951 65.0537 8.24951C64.6075 8.24396 64.1727 8.39013 63.8204 8.66407L63.5303 8.13551C63.9959 7.79641 64.5609 7.62144 65.1366 7.63804C66.1938 7.63804 66.7949 8.14587 66.7949 9.21335ZM66.0901 10.3741V9.83518H65.0537C64.3594 9.83518 64.1624 10.1046 64.1624 10.4363C64.1624 10.7679 64.4837 11.0685 65.0226 11.0685C65.2501 11.0749 65.474 11.0119 65.6647 10.8879C65.8555 10.7638 66.0038 10.5846 66.0901 10.3741Z" fill="white"/>
<path d="M67.9763 6.46709C67.9763 6.40497 67.9887 6.34346 68.0128 6.28619C68.0369 6.22892 68.0721 6.17704 68.1166 6.1336C68.161 6.09015 68.2136 6.05602 68.2714 6.0332C68.3292 6.01038 68.3909 5.99934 68.4531 6.00072C68.5138 5.99794 68.5745 6.00734 68.6315 6.02836C68.6886 6.04938 68.7409 6.0816 68.7853 6.12312C68.8297 6.16465 68.8654 6.21464 68.8902 6.27015C68.915 6.32566 68.9285 6.38557 68.9298 6.44637C68.9298 6.5728 68.8796 6.69406 68.7902 6.78347C68.7007 6.87287 68.5795 6.9231 68.4531 6.9231C68.3266 6.9231 68.2054 6.87287 68.1159 6.78347C68.0265 6.69406 67.9763 6.5728 67.9763 6.44637V6.46709ZM68.1007 7.6693H68.8054V11.5661H68.1007V7.6693Z" fill="white"/>
<path d="M70.1527 6.1145H70.8575V11.5659H70.1527V6.1145Z" fill="white"/>
<path d="M32.4595 25.4225H30.6976V24.7903H34.9468V25.4225H33.185V29.9307H32.4595V25.4225Z" fill="#263238"/>
<path d="M34.8846 27.9823C34.8681 27.5693 34.9754 27.1607 35.1929 26.8091C35.4104 26.4575 35.728 26.1789 36.105 26.0093C36.482 25.8396 36.9011 25.7865 37.3085 25.8569C37.7159 25.9273 38.0929 26.1179 38.3912 26.4042C38.6894 26.6905 38.8952 27.0594 38.9821 27.4636C39.0691 27.8678 39.0331 28.2887 38.879 28.6723C38.7248 29.0559 38.4595 29.3846 38.1171 29.6163C37.7746 29.8479 37.3708 29.9719 36.9574 29.9722C36.687 29.9928 36.4153 29.9561 36.16 29.8645C35.9048 29.7729 35.6717 29.6285 35.4761 29.4407C35.2805 29.2529 35.1267 29.0259 35.0247 28.7746C34.9228 28.5233 34.8751 28.2533 34.8846 27.9823V27.9823ZM38.2217 27.9823C38.2217 27.8095 38.1877 27.6383 38.1216 27.4786C38.0554 27.319 37.9585 27.1739 37.8362 27.0516C37.714 26.9294 37.5689 26.8325 37.4092 26.7663C37.2495 26.7002 37.0784 26.6661 36.9055 26.6661C36.7327 26.6661 36.5615 26.7002 36.4019 26.7663C36.2422 26.8325 36.0971 26.9294 35.9748 27.0516C35.8526 27.1739 35.7557 27.319 35.6895 27.4786C35.6234 27.6383 35.5893 27.8095 35.5893 27.9823C35.5893 28.1552 35.6234 28.3263 35.6895 28.486C35.7557 28.6457 35.8526 28.7908 35.9748 28.913C36.0971 29.0353 36.2422 29.1322 36.4019 29.1983C36.5615 29.2645 36.7327 29.2985 36.9055 29.2985C37.0784 29.2985 37.2495 29.2645 37.4092 29.1983C37.5689 29.1322 37.714 29.0353 37.8362 28.913C37.9585 28.7908 38.0554 28.6457 38.1216 28.486C38.1877 28.3263 38.2217 28.1552 38.2217 27.9823Z" fill="#263238"/>
<path d="M41.5693 26.5418C41.5679 26.4761 41.5798 26.4107 41.6043 26.3498C41.6288 26.2888 41.6654 26.2334 41.7119 26.1869C41.7583 26.1404 41.8137 26.1038 41.8747 26.0793C41.9357 26.0548 42.001 26.0429 42.0668 26.0443C42.132 26.0428 42.1969 26.0548 42.2573 26.0794C42.3178 26.104 42.3725 26.1408 42.4182 26.1874C42.4639 26.234 42.4995 26.2896 42.5228 26.3505C42.5461 26.4115 42.5567 26.4766 42.5539 26.5418C42.5567 26.6075 42.5461 26.673 42.5229 26.7346C42.4997 26.7961 42.4642 26.8522 42.4187 26.8997C42.3732 26.9471 42.3186 26.9849 42.2581 27.0106C42.1976 27.0364 42.1325 27.0497 42.0668 27.0496C42.0006 27.0496 41.935 27.0364 41.874 27.0108C41.8129 26.9851 41.7576 26.9476 41.7113 26.9003C41.665 26.853 41.6285 26.7969 41.6042 26.7353C41.5798 26.6738 41.5679 26.608 41.5693 26.5418V26.5418ZM41.5693 29.5162C41.5679 29.45 41.5798 29.3842 41.6042 29.3226C41.6285 29.2611 41.665 29.205 41.7113 29.1577C41.7576 29.1104 41.8129 29.0729 41.874 29.0472C41.935 29.0216 42.0006 29.0084 42.0668 29.0084C42.2042 29.0084 42.336 29.063 42.4332 29.1601C42.5304 29.2573 42.585 29.3891 42.585 29.5266C42.585 29.664 42.5304 29.7958 42.4332 29.893C42.336 29.9902 42.2042 30.0448 42.0668 30.0448C41.9943 30.0474 41.9222 30.0338 41.8557 30.005C41.7892 29.9762 41.7299 29.9329 41.6822 29.8783C41.6346 29.8236 41.5997 29.7591 41.5802 29.6893C41.5606 29.6195 41.5569 29.5462 41.5693 29.4747V29.5162Z" fill="#263238"/>
<path d="M31.7444 44.6784C31.7454 44.3269 31.8176 43.9793 31.9566 43.6566C32.0957 43.3338 32.2987 43.0425 32.5535 42.8004C32.8082 42.5582 33.1094 42.3702 33.4388 42.2477C33.7682 42.1252 34.119 42.0706 34.4701 42.0874C34.8346 42.0725 35.1982 42.1361 35.5361 42.2738C35.874 42.4114 36.1785 42.62 36.4288 42.8855L35.9521 43.3518C35.7673 43.153 35.5424 42.9957 35.2923 42.8903C35.0422 42.7849 34.7725 42.7338 34.5011 42.7404C34.1736 42.7421 33.8516 42.8251 33.564 42.9819C33.2764 43.1387 33.0322 43.3644 32.8533 43.6388C32.6744 43.9132 32.5664 44.2278 32.539 44.5542C32.5116 44.8806 32.5656 45.2087 32.6962 45.5091C32.8269 45.8095 33.03 46.0728 33.2874 46.2754C33.5448 46.478 33.8485 46.6135 34.1711 46.6698C34.4938 46.7262 34.8254 46.7015 35.1363 46.5982C35.4471 46.4948 35.7274 46.3159 35.9521 46.0775L36.4288 46.5439C36.1774 46.8115 35.8715 47.0221 35.5319 47.1615C35.1922 47.301 34.8266 47.366 34.4597 47.3523C34.1024 47.3681 33.7457 47.3101 33.4119 47.1819C33.078 47.0536 32.7742 46.8579 32.5194 46.607C32.2646 46.3561 32.0642 46.0553 31.9309 45.7235C31.7975 45.3916 31.734 45.0359 31.7444 44.6784V44.6784Z" fill="#263238"/>
<path d="M36.8434 45.3003C36.8371 45.0301 36.887 44.7616 36.9901 44.5118C37.0931 44.262 37.247 44.0364 37.4419 43.8492C37.6368 43.6621 37.8686 43.5176 38.1224 43.4248C38.3762 43.332 38.6465 43.2931 38.9161 43.3104C39.2377 43.2896 39.5588 43.3579 39.8441 43.5079C40.1293 43.6578 40.3677 43.8836 40.5329 44.1602L39.994 44.5126C39.883 44.3389 39.7296 44.1964 39.5483 44.0985C39.367 44.0006 39.1637 43.9505 38.9576 43.953C38.614 43.9828 38.2941 44.1404 38.061 44.3947C37.8279 44.6489 37.6986 44.9813 37.6986 45.3262C37.6986 45.6711 37.8279 46.0034 38.061 46.2577C38.2941 46.5119 38.614 46.6695 38.9576 46.6994C39.1637 46.7018 39.367 46.6518 39.5483 46.5538C39.7296 46.4559 39.883 46.3134 39.994 46.1397L40.5329 46.4714C40.3697 46.7421 40.1359 46.9632 39.8565 47.1111C39.5772 47.259 39.2628 47.328 38.9472 47.3108C38.6733 47.3329 38.3977 47.2968 38.1387 47.2049C37.8797 47.1129 37.6431 46.9672 37.4444 46.7774C37.2457 46.5875 37.0894 46.3577 36.9859 46.1031C36.8823 45.8485 36.8337 45.5749 36.8434 45.3003V45.3003Z" fill="#263238"/>
<path d="M43.0513 43.8184C43.0534 43.7205 43.0843 43.6253 43.1402 43.5449C43.1961 43.4645 43.2745 43.4023 43.3655 43.3663C43.4566 43.3302 43.5563 43.3218 43.6521 43.3422C43.7479 43.3625 43.8355 43.4107 43.9041 43.4807C43.9726 43.5506 44.019 43.6393 44.0373 43.7355C44.0557 43.8317 44.0453 43.9312 44.0073 44.0214C43.9694 44.1117 43.9057 44.1888 43.8241 44.2431C43.7425 44.2973 43.6468 44.3262 43.5488 44.3262C43.4826 44.3262 43.4171 44.313 43.356 44.2874C43.295 44.2617 43.2397 44.2242 43.1933 44.1769C43.147 44.1296 43.1106 44.0735 43.0862 44.012C43.0618 43.9504 43.05 43.8846 43.0513 43.8184ZM43.0513 46.7825C43.0534 46.6845 43.0843 46.5894 43.1402 46.509C43.1961 46.4285 43.2745 46.3664 43.3655 46.3303C43.4566 46.2943 43.5563 46.2859 43.6521 46.3062C43.7479 46.3266 43.8355 46.3747 43.9041 46.4447C43.9726 46.5147 44.019 46.6033 44.0373 46.6995C44.0557 46.7957 44.0453 46.8952 44.0073 46.9855C43.9694 47.0758 43.9057 47.1529 43.8241 47.2071C43.7425 47.2613 43.6468 47.2903 43.5488 47.2903C43.4822 47.2918 43.416 47.2796 43.3543 47.2544C43.2926 47.2293 43.2367 47.1918 43.19 47.1442C43.1434 47.0966 43.107 47.0399 43.0832 46.9777C43.0593 46.9155 43.0485 46.849 43.0513 46.7825V46.7825Z" fill="#263238"/>
<path d="M30.9672 64.204L31.2366 63.6237C31.7143 64.0186 32.3165 64.2316 32.9363 64.2248C33.8276 64.2248 34.211 63.8724 34.211 63.4267C34.211 62.1727 31.1019 62.9604 31.1019 61.0534C31.1019 60.2554 31.7134 59.5818 33.071 59.5818C33.6556 59.5748 34.2304 59.7329 34.7292 60.0378L34.4805 60.6285C34.0609 60.3552 33.5718 60.2077 33.071 60.2036C32.2005 60.2036 31.817 60.5767 31.817 61.0223C31.817 62.2764 34.9261 61.4887 34.9261 63.3853C34.9261 64.1729 34.294 64.8466 32.9363 64.8466C32.2258 64.8638 31.5308 64.637 30.9672 64.204V64.204Z" fill="#263238"/>
<path d="M39.4965 60.8875V64.7843H38.8229V64.2039C38.6714 64.4084 38.4724 64.5728 38.243 64.683C38.0137 64.7931 37.7609 64.8457 37.5067 64.8361C37.2787 64.8593 37.0484 64.8311 36.8327 64.7535C36.6171 64.676 36.4215 64.5511 36.2605 64.3881C36.0994 64.225 35.977 64.028 35.9021 63.8114C35.8272 63.5948 35.8018 63.3642 35.8277 63.1365V60.8875H36.5325V63.0536C36.5325 63.8205 36.9159 64.2039 37.5689 64.2039C37.7372 64.2129 37.9055 64.1848 38.0618 64.1215C38.2181 64.0582 38.3586 63.9613 38.4733 63.8377C38.588 63.7141 38.6741 63.5668 38.7256 63.4062C38.777 63.2456 38.7926 63.0757 38.7711 62.9085V60.8357L39.4965 60.8875Z" fill="#263238"/>
<path d="M44.9065 62.8152C44.9196 63.0787 44.8778 63.342 44.7839 63.5885C44.69 63.8351 44.5459 64.0594 44.3608 64.2474C44.1758 64.4354 43.9537 64.5829 43.7087 64.6807C43.4637 64.7785 43.201 64.8244 42.9374 64.8154C42.6694 64.8263 42.4028 64.7715 42.1608 64.6559C41.9188 64.5403 41.7087 64.3674 41.5486 64.1522V64.7636H40.8646V59.3123H41.5694V61.4576C41.7334 61.2548 41.9425 61.093 42.1799 60.9851C42.4174 60.8771 42.6767 60.826 42.9374 60.8357C43.2 60.8238 43.4622 60.867 43.7072 60.9624C43.9522 61.0578 44.1745 61.2034 44.36 61.3898C44.5454 61.5762 44.6898 61.7993 44.7839 62.0447C44.878 62.2902 44.9198 62.5527 44.9065 62.8152V62.8152ZM44.1914 62.8152C44.1792 62.5579 44.0918 62.3098 43.94 62.1017C43.7882 61.8936 43.5786 61.7346 43.3373 61.6444C43.096 61.5543 42.8335 61.5369 42.5824 61.5945C42.3313 61.6521 42.1027 61.7821 41.9248 61.9684C41.7468 62.1547 41.6275 62.3892 41.5816 62.6427C41.5356 62.8961 41.5651 63.1575 41.6663 63.3944C41.7675 63.6313 41.9359 63.8333 42.1508 63.9754C42.3657 64.1175 42.6176 64.1933 42.8752 64.1936C43.0547 64.1984 43.2332 64.1656 43.3993 64.0972C43.5653 64.0288 43.7151 63.9263 43.8392 63.7965C43.9632 63.6666 44.0586 63.5122 44.1193 63.3432C44.1799 63.1742 44.2045 62.9943 44.1914 62.8152V62.8152Z" fill="#263238"/>
<path d="M44.5333 66.0279L44.7613 65.4786C44.9241 65.6048 45.1255 65.6707 45.3313 65.6652C45.7044 65.6652 45.9117 65.4268 45.9117 64.9812V60.8356H46.6165V64.9086C46.6369 65.0792 46.6193 65.2522 46.5648 65.4151C46.5103 65.578 46.4203 65.7269 46.3013 65.8508C46.1823 65.9747 46.0373 66.0707 45.8768 66.1318C45.7162 66.1929 45.5441 66.2176 45.3728 66.2041C45.0815 66.234 44.788 66.1724 44.5333 66.0279ZM45.7873 59.706C45.7873 59.6438 45.7997 59.5823 45.8238 59.5251C45.8479 59.4678 45.8832 59.4159 45.9276 59.3725C45.972 59.329 46.0246 59.2949 46.0824 59.2721C46.1402 59.2493 46.202 59.2382 46.2641 59.2396C46.3274 59.2352 46.3909 59.2442 46.4506 59.2658C46.5103 59.2874 46.5648 59.3213 46.6107 59.3652C46.6565 59.4091 46.6927 59.462 46.7169 59.5207C46.7411 59.5794 46.7528 59.6425 46.7512 59.706C46.7512 59.8324 46.701 59.9537 46.6116 60.0431C46.5222 60.1325 46.4009 60.1827 46.2744 60.1827C46.148 60.1827 46.0267 60.1325 45.9373 60.0431C45.8479 59.9537 45.7977 59.8324 45.7977 59.706H45.7873Z" fill="#263238"/>
<path d="M51.4668 63.0743H48.3577C48.4042 63.4096 48.5771 63.7145 48.8411 63.9264C49.1051 64.1383 49.4401 64.2413 49.7775 64.2143C49.9866 64.2212 50.1947 64.1832 50.3878 64.1027C50.5809 64.0223 50.7545 63.9013 50.8968 63.748L51.2906 64.204C51.0943 64.4149 50.8546 64.5806 50.588 64.6898C50.3214 64.7989 50.0342 64.8489 49.7464 64.8362C49.4762 64.852 49.2057 64.8117 48.9519 64.7177C48.6981 64.6237 48.4665 64.4782 48.2717 64.2903C48.077 64.1023 47.9233 63.8761 47.8203 63.6258C47.7174 63.3754 47.6675 63.1065 47.6737 62.8359C47.6636 62.5751 47.7073 62.3149 47.8019 62.0716C47.8965 61.8282 48.0401 61.6069 48.2237 61.4214C48.4073 61.2358 48.6271 61.0899 48.8694 60.9927C49.1117 60.8955 49.3714 60.8492 49.6324 60.8565C49.8841 60.859 50.1328 60.9122 50.3635 61.0128C50.5943 61.1135 50.8024 61.2595 50.9755 61.4423C51.1486 61.6251 51.2831 61.8408 51.3711 62.0767C51.4591 62.3126 51.4987 62.5637 51.4875 62.8152C51.4879 62.902 51.481 62.9887 51.4668 63.0743ZM48.3577 62.5665H50.8657C50.8264 62.2617 50.6775 61.9816 50.4467 61.7786C50.2159 61.5756 49.919 61.4637 49.6117 61.4637C49.3043 61.4637 49.0075 61.5756 48.7767 61.7786C48.5459 61.9816 48.3969 62.2617 48.3577 62.5665V62.5665Z" fill="#263238"/>
<path d="M52.0989 62.8153C52.0941 62.546 52.1451 62.2786 52.2488 62.0301C52.3525 61.7815 52.5066 61.5571 52.7013 61.3711C52.8961 61.1851 53.1273 61.0415 53.3804 60.9494C53.6335 60.8572 53.9029 60.8185 54.1717 60.8358C54.4864 60.8164 54.8005 60.8834 55.08 61.0295C55.3594 61.1756 55.5936 61.3953 55.7573 61.6649L55.2184 62.0069C55.1075 61.8332 54.9541 61.6907 54.7727 61.5928C54.5914 61.4949 54.3881 61.4448 54.182 61.4473C53.8384 61.4771 53.5185 61.6347 53.2854 61.889C53.0524 62.1432 52.923 62.4756 52.923 62.8205C52.923 63.1654 53.0524 63.4977 53.2854 63.752C53.5185 64.0062 53.8384 64.1638 54.182 64.1937C54.3881 64.1961 54.5914 64.1461 54.7727 64.0481C54.9541 63.9502 55.1075 63.8077 55.2184 63.634L55.7573 63.976C55.5925 64.2452 55.3583 64.465 55.0794 64.6127C54.8004 64.7604 54.4869 64.8304 54.1717 64.8155C53.9015 64.8313 53.6309 64.791 53.3771 64.697C53.1233 64.6031 52.8917 64.4575 52.697 64.2696C52.5022 64.0816 52.3485 63.8554 52.2456 63.6051C52.1427 63.3548 52.0927 63.0859 52.0989 62.8153V62.8153Z" fill="#263238"/>
<path d="M58.8977 64.5565C58.6553 64.7453 58.355 64.8442 58.0478 64.8363C57.8816 64.8557 57.7132 64.8376 57.5549 64.7833C57.3966 64.7291 57.2525 64.64 57.1331 64.5226C57.0138 64.4053 56.9223 64.2627 56.8654 64.1054C56.8085 63.948 56.7875 63.7799 56.8042 63.6134V61.468H56.1512V60.8877H56.8042V60.0378H57.5089V60.8877H58.6282V61.468H57.5089V63.5408C57.4981 63.6256 57.5061 63.7117 57.5324 63.793C57.5586 63.8743 57.6026 63.9488 57.661 64.0112C57.7194 64.0736 57.7909 64.1223 57.8703 64.1538C57.9497 64.1854 58.0351 64.199 58.1204 64.1937C58.3227 64.1969 58.5201 64.1311 58.68 64.0072L58.8977 64.5565Z" fill="#263238"/>
<path d="M61.3954 61.3539C61.3954 61.2165 61.45 61.0847 61.5471 60.9875C61.6443 60.8903 61.7761 60.8357 61.9136 60.8357C62.051 60.8357 62.1828 60.8903 62.28 60.9875C62.3772 61.0847 62.4318 61.2165 62.4318 61.3539C62.4318 61.4913 62.3772 61.6231 62.28 61.7203C62.1828 61.8175 62.051 61.8721 61.9136 61.8721C61.7761 61.8721 61.6443 61.8175 61.5471 61.7203C61.45 61.6231 61.3954 61.4913 61.3954 61.3539ZM61.3954 64.3283C61.3974 64.2304 61.4283 64.1352 61.4842 64.0548C61.5401 63.9744 61.6185 63.9122 61.7095 63.8762C61.8006 63.8401 61.9003 63.8317 61.9961 63.8521C62.0919 63.8724 62.1796 63.9206 62.2481 63.9906C62.3166 64.0605 62.363 64.1492 62.3814 64.2454C62.3997 64.3416 62.3893 64.4411 62.3514 64.5314C62.3134 64.6217 62.2497 64.6988 62.1681 64.753C62.0865 64.8072 61.9908 64.8361 61.8928 64.8361C61.8266 64.8361 61.7611 64.8229 61.7 64.7973C61.639 64.7717 61.5837 64.7341 61.5374 64.6868C61.491 64.6395 61.4546 64.5834 61.4302 64.5219C61.4058 64.4603 61.394 64.3945 61.3954 64.3283V64.3283Z" fill="#263238"/>
<path d="M125.921 29.0082C125.921 29.1533 109.421 29.2777 89.0668 29.2777C68.7122 29.2777 52.2026 29.1533 52.2026 29.0082C52.2026 28.8631 68.7019 28.7388 89.0668 28.7388C109.432 28.7388 125.921 28.8631 125.921 29.0082Z" fill="#263238"/>
<path d="M158.836 45.8288C158.836 45.9739 134.999 46.0982 105.525 46.0982C76.0498 46.0982 52.2026 45.9739 52.2026 45.8288C52.2026 45.6837 76.0394 45.5593 105.525 45.5593C135.01 45.5593 158.836 45.6733 158.836 45.8288Z" fill="#263238"/>
<path d="M119.412 62.5147C119.254 62.5594 119.089 62.577 118.925 62.5665H117.515L112.334 62.6494C107.97 62.6494 101.97 62.7323 95.3161 62.7323C88.6625 62.7323 82.6515 62.7323 78.2883 62.6494L73.1064 62.5665H71.6969C71.5328 62.5782 71.3679 62.5607 71.2098 62.5147C71.3709 62.486 71.5358 62.486 71.6969 62.5147H73.1064L78.2883 62.4318C82.6515 62.4318 88.6522 62.3489 95.3161 62.3489C101.98 62.3489 107.97 62.3489 112.334 62.4318L117.515 62.5147H118.925C119.086 62.4872 119.251 62.4872 119.412 62.5147Z" fill="#263238"/>
<path d="M300.665 71.5934C300.665 71.7385 238.721 71.8629 162.329 71.8629C85.9369 71.8629 23.9508 71.7385 23.9508 71.5934C23.9508 71.4483 85.8747 71.324 162.287 71.324C238.7 71.324 300.665 71.4483 300.665 71.5934Z" fill="#E0E0E0"/>
<path d="M300.665 53.3945C300.665 53.5396 238.7 53.6639 162.277 53.6639C85.8539 53.6639 23.8885 53.5396 23.8885 53.3945C23.8885 53.2494 85.8332 53.125 162.277 53.125C238.72 53.125 300.665 53.239 300.665 53.3945Z" fill="#E0E0E0"/>
<path d="M300.665 37.4135C300.665 37.569 238.721 37.683 162.329 37.683C85.9369 37.683 23.9508 37.569 23.9508 37.4135C23.9508 37.258 85.8747 37.144 162.287 37.144C238.7 37.144 300.665 37.2684 300.665 37.4135Z" fill="#E0E0E0"/>
<path d="M58.255 93.8031C55.3371 94.07 52.4057 94.16 49.4769 94.0726C46.5446 94.1601 43.6097 94.0701 40.6884 93.8031C43.6089 93.5229 46.5444 93.4295 49.4769 93.5233C52.4059 93.4297 55.3379 93.5231 58.255 93.8031Z" fill="#263238"/>
<path d="M116.033 106.955C116.033 107.1 99.1715 107.224 78.3609 107.224C57.5503 107.224 40.6884 107.1 40.6884 106.955C40.6884 106.81 57.5503 106.685 78.3609 106.685C99.1715 106.685 116.033 106.81 116.033 106.955Z" fill="#263238"/>
<path d="M23.9508 0.248734L303.536 0H303.774V0.248734C303.774 57.9753 303.774 122.262 303.774 189.907V190.197H303.505L23.9508 190.125H23.7332V189.907C23.8679 74.4331 23.9508 2.02095 23.9508 0.248734C23.9508 2.02095 24.0337 74.4331 24.1684 189.907L23.9508 189.689H303.536L303.266 189.959C303.266 122.335 303.266 58.0478 303.266 0.300552L303.515 0.549282L23.9508 0.248734Z" fill="#263238"/>
<path d="M182.839 152.048H319.02C320.196 152.048 321.324 152.515 322.156 153.347C322.988 154.179 323.455 155.307 323.455 156.484V241.229C323.455 243.823 322.425 246.312 320.59 248.147C318.755 249.981 316.267 251.012 313.672 251.012H188.187C185.592 251.012 183.103 249.981 181.269 248.147C179.434 246.312 178.403 243.823 178.403 241.229V156.484C178.403 155.307 178.87 154.179 179.702 153.347C180.534 152.515 181.662 152.048 182.839 152.048V152.048Z" fill="#E8B12B"/>
<path d="M313.672 251.012H313.983C314.19 251.012 314.491 251.012 314.895 250.929C316.082 250.766 317.23 250.39 318.284 249.82C320.002 248.87 321.395 247.426 322.284 245.675C322.853 244.574 323.205 243.374 323.32 242.141C323.403 240.824 323.32 239.394 323.32 237.891C323.32 225.838 323.269 208.427 323.238 186.901C323.238 181.526 323.238 175.895 323.238 170.008C323.238 167.072 323.238 164.077 323.238 161.023V156.411C323.222 155.66 323.007 154.927 322.616 154.286C322.224 153.646 321.67 153.12 321.009 152.763C320.334 152.415 319.582 152.244 318.823 152.265H301.588H280.798H188.207H183.554C183.059 152.238 182.563 152.259 182.072 152.328C181.121 152.494 180.259 152.987 179.633 153.721C179.006 154.455 178.656 155.384 178.641 156.349C178.641 160.401 178.641 164.433 178.641 168.433V192.052C178.641 207.546 178.641 222.48 178.641 236.72C178.641 238.482 178.641 240.286 178.641 241.996C178.792 243.689 179.391 245.312 180.377 246.698C181.362 248.084 182.698 249.183 184.248 249.882C185.784 250.54 187.452 250.827 189.119 250.722H208.738H243.975L294.955 250.805H308.822H312.428H313.651H312.428H308.822L294.955 250.857L243.975 250.94H208.738H189.171C187.437 251.048 185.702 250.75 184.103 250.069C182.47 249.338 181.062 248.184 180.026 246.726C178.989 245.269 178.361 243.56 178.206 241.778C178.113 239.985 178.206 238.244 178.154 236.461C178.154 222.221 178.154 207.287 178.154 191.793C178.154 184.055 178.154 176.182 178.154 168.174C178.154 164.174 178.154 160.142 178.154 156.079C178.172 154.99 178.568 153.941 179.276 153.112C179.983 152.284 180.957 151.728 182.03 151.54C182.552 151.465 183.079 151.441 183.606 151.467H188.218H280.808H318.833C319.668 151.442 320.496 151.631 321.237 152.017C321.964 152.414 322.572 152.996 323.002 153.704C323.431 154.412 323.666 155.221 323.683 156.048V160.671C323.683 163.731 323.683 166.726 323.683 169.656C323.683 175.529 323.683 181.16 323.683 186.549C323.683 208.075 323.611 225.486 323.59 237.539C323.59 239.052 323.59 240.462 323.59 241.809C323.48 243.06 323.128 244.278 322.554 245.395C321.635 247.156 320.209 248.6 318.46 249.54C317.392 250.099 316.228 250.451 315.029 250.577C314.586 250.748 314.132 250.894 313.672 251.012Z" fill="#263238"/>
<path d="M263.49 251.012H238.296C238.296 251.012 230.554 263.936 238.296 271.74H264.392C264.392 271.74 251.51 263.273 263.49 251.012Z" fill="#E8B12B"/>
<g opacity="0.3">
<path d="M238.296 251.012L237.021 253.572L260.111 255.375C261.163 253.865 262.291 252.409 263.49 251.012H238.296Z" fill="black"/>
</g>
<path d="M254.018 244.265C255.597 244.265 256.878 242.985 256.878 241.405C256.878 239.825 255.597 238.544 254.018 238.544C252.438 238.544 251.157 239.825 251.157 241.405C251.157 242.985 252.438 244.265 254.018 244.265Z" fill="#FAFAFA"/>
<path d="M316.501 157.499H185.357V232.979H316.501V157.499Z" fill="#FAFAFA"/>
<path d="M316.501 232.969C316.501 232.969 316.501 232.502 316.501 231.611C316.501 230.72 316.501 229.383 316.501 227.652C316.501 224.18 316.501 219.091 316.449 212.552C316.449 199.473 316.387 180.631 316.335 157.499L316.543 157.706L185.409 157.769L185.679 157.499C185.679 184.207 185.679 209.723 185.679 232.969L185.419 232.72L279.73 232.844L306.821 232.906H314.076H315.942H316.584H315.973H314.138H306.966L279.927 232.979L185.44 233.093H185.191V232.834C185.191 209.588 185.191 184.072 185.191 157.364V157.095H185.471L316.605 157.157H316.812V157.364C316.812 180.548 316.729 199.442 316.708 212.541C316.708 219.06 316.708 224.139 316.657 227.6C316.657 229.307 316.657 230.613 316.657 231.518C316.522 232.533 316.501 232.969 316.501 232.969Z" fill="#263238"/>
<path d="M217.692 163.883H186.829V231.124H217.692V163.883Z" fill="#E8B12B"/>
<g opacity="0.4">
<path d="M217.682 189.337H186.829V195.358H217.682V189.337Z" fill="black"/>
</g>
<g opacity="0.4">
<path d="M217.682 201.618H186.829V207.639H217.682V201.618Z" fill="black"/>
</g>
<g opacity="0.4">
<path d="M217.682 216.303H186.829V222.957H217.682V216.303Z" fill="black"/>
</g>
<path d="M212.324 198.509C209.025 198.776 205.714 198.866 202.406 198.778C199.094 198.866 195.779 198.776 192.477 198.509C195.779 198.242 199.094 198.152 202.406 198.239C205.714 198.152 209.025 198.242 212.324 198.509V198.509Z" fill="#263238"/>
<path d="M212.324 192.228C209.025 192.495 205.714 192.585 202.406 192.498C199.094 192.585 195.779 192.495 192.477 192.228C195.779 191.961 199.094 191.872 202.406 191.959C205.714 191.871 209.025 191.961 212.324 192.228V192.228Z" fill="#263238"/>
<path d="M217.692 222.957C217.692 223.102 210.852 223.227 202.406 223.227C193.959 223.227 187.109 223.102 187.109 222.957C187.109 222.812 193.959 222.688 202.406 222.688C210.852 222.688 217.692 222.812 217.692 222.957Z" fill="#263238"/>
<path d="M207.629 204.852C205.113 205.118 202.582 205.208 200.053 205.121C197.524 205.208 194.993 205.118 192.477 204.852C194.993 204.585 197.524 204.495 200.053 204.582C202.582 204.495 205.113 204.585 207.629 204.852V204.852Z" fill="#263238"/>
<path d="M209.764 218.905C207.249 219.178 204.717 219.268 202.188 219.174C199.66 219.268 197.128 219.178 194.612 218.905C197.128 218.638 199.66 218.548 202.188 218.636C204.717 218.548 207.248 218.638 209.764 218.905V218.905Z" fill="#263238"/>
<path d="M212.324 211.806C209.025 212.073 205.714 212.163 202.406 212.075C199.094 212.162 195.779 212.072 192.477 211.806C195.779 211.532 199.094 211.443 202.406 211.536C205.714 211.442 209.025 211.532 212.324 211.806V211.806Z" fill="#263238"/>
<path d="M212.324 226.895C209.025 227.169 205.714 227.259 202.406 227.165C199.094 227.258 195.779 227.168 192.477 226.895C195.779 226.629 199.094 226.539 202.406 226.626C205.714 226.538 209.025 226.628 212.324 226.895V226.895Z" fill="#263238"/>
<path d="M201.846 168.423C200.196 168.426 198.595 168.984 197.301 170.008C196.007 171.031 195.095 172.46 194.713 174.065C194.33 175.67 194.498 177.357 195.19 178.854C195.883 180.352 197.059 181.573 198.53 182.321V180.072C198.53 179.154 198.894 178.273 199.543 177.624C200.193 176.975 201.073 176.61 201.991 176.61C202.909 176.61 203.79 176.975 204.439 177.624C205.088 178.273 205.453 179.154 205.453 180.072V182.144C206.869 181.348 207.982 180.104 208.616 178.608C209.251 177.112 209.371 175.448 208.959 173.876C208.547 172.304 207.625 170.913 206.338 169.92C205.051 168.928 203.471 168.39 201.846 168.392V168.423ZM201.991 176.092C201.479 176.092 200.978 175.94 200.552 175.655C200.126 175.371 199.793 174.966 199.597 174.493C199.401 174.019 199.35 173.498 199.45 172.996C199.55 172.493 199.797 172.031 200.159 171.669C200.521 171.307 200.983 171.06 201.486 170.96C201.988 170.86 202.509 170.911 202.983 171.107C203.456 171.303 203.861 171.635 204.145 172.062C204.43 172.488 204.582 172.989 204.582 173.501C204.582 174.188 204.309 174.847 203.823 175.333C203.337 175.819 202.678 176.092 201.991 176.092Z" fill="#FAFAFA"/>
<path d="M201.991 176.61C201.073 176.61 200.193 176.975 199.543 177.624C198.894 178.273 198.53 179.154 198.53 180.072V182.321C199.606 182.869 200.801 183.143 202.009 183.117C203.217 183.092 204.4 182.769 205.453 182.175V180.103C205.455 179.646 205.368 179.193 205.195 178.77C205.023 178.347 204.768 177.962 204.447 177.638C204.125 177.314 203.743 177.056 203.321 176.879C202.9 176.703 202.448 176.611 201.991 176.61V176.61Z" fill="#E8B12B"/>
<path d="M201.991 170.91C201.479 170.91 200.978 171.062 200.552 171.347C200.126 171.631 199.793 172.036 199.597 172.509C199.401 172.983 199.35 173.504 199.45 174.006C199.55 174.509 199.797 174.971 200.159 175.333C200.521 175.695 200.983 175.942 201.486 176.042C201.988 176.142 202.509 176.091 202.983 175.895C203.456 175.698 203.861 175.366 204.145 174.94C204.43 174.514 204.582 174.013 204.582 173.501C204.582 172.814 204.309 172.155 203.823 171.669C203.337 171.183 202.678 170.91 201.991 170.91Z" fill="#E8B12B"/>
<path d="M209.246 175.781C209.184 175.781 209.246 175.128 208.914 174.009C208.472 172.442 207.525 171.064 206.22 170.091C205.332 169.423 204.298 168.976 203.204 168.785C201.954 168.56 200.666 168.671 199.473 169.107C198.152 169.586 197.007 170.453 196.187 171.594C195.292 172.806 194.809 174.274 194.809 175.781C194.809 177.288 195.292 178.756 196.187 179.968C197.007 181.108 198.152 181.975 199.473 182.455C200.666 182.89 201.952 183.005 203.204 182.787C204.298 182.588 205.33 182.138 206.22 181.471C207.525 180.497 208.472 179.12 208.914 177.553C209.215 176.434 209.184 175.781 209.246 175.781C209.259 175.94 209.259 176.099 209.246 176.258C209.241 176.712 209.186 177.163 209.08 177.605C208.706 179.254 207.767 180.72 206.427 181.75C205.306 182.622 203.962 183.161 202.55 183.306C201.138 183.452 199.713 183.198 198.437 182.574C197.162 181.95 196.087 180.981 195.336 179.776C194.584 178.571 194.186 177.18 194.186 175.76C194.186 174.34 194.584 172.949 195.336 171.744C196.087 170.54 197.162 169.57 198.437 168.946C199.713 168.322 201.138 168.068 202.55 168.214C203.962 168.36 205.306 168.899 206.427 169.77C207.767 170.8 208.706 172.267 209.08 173.915C209.186 174.36 209.242 174.816 209.246 175.273C209.261 175.442 209.261 175.612 209.246 175.781V175.781Z" fill="#FAFAFA"/>
<path d="M314.335 186.383H217.692V195.431H314.335V186.383Z" fill="#EBEBEB"/>
<path d="M314.335 163.883H217.692V168.423H314.335V163.883Z" fill="#F5F5F5"/>
<path d="M286.373 165.241H221.112C220.7 165.241 220.366 165.575 220.366 165.987V166.267C220.366 166.679 220.7 167.013 221.112 167.013H286.373C286.786 167.013 287.12 166.679 287.12 166.267V165.987C287.12 165.575 286.786 165.241 286.373 165.241Z" fill="#E0E0E0"/>
<path d="M295.701 165.241H291.358C290.946 165.241 290.612 165.575 290.612 165.987V166.267C290.612 166.679 290.946 167.013 291.358 167.013H295.701C296.113 167.013 296.447 166.679 296.447 166.267V165.987C296.447 165.575 296.113 165.241 295.701 165.241Z" fill="#E0E0E0"/>
<path d="M300.271 165.117H299.536V165.853H300.271V165.117Z" fill="#E0E0E0"/>
<path d="M300.271 166.08H299.536V166.816H300.271V166.08Z" fill="#E0E0E0"/>
<path d="M301.411 165.117H300.676V165.853H301.411V165.117Z" fill="#E0E0E0"/>
<path d="M301.411 166.08H300.676V166.816H301.411V166.08Z" fill="#E0E0E0"/>
<path d="M314.335 168.423H217.692V177.47H314.335V168.423Z" fill="#E0E0E0"/>
<path d="M223.102 171.376H220.366V174.112H223.102V171.376Z" fill="#E8B12B"/>
<path d="M265.428 172.734C265.428 172.879 256.557 173.004 245.613 173.004C234.668 173.004 225.807 172.879 225.807 172.734C225.807 172.589 234.679 172.465 245.613 172.465C256.546 172.465 265.428 172.579 265.428 172.734Z" fill="#263238"/>
<path d="M302.738 172.672C302.022 172.932 301.256 173.025 300.499 172.941C299.746 173.025 298.983 172.933 298.271 172.672C298.981 172.404 299.746 172.312 300.499 172.402C301.256 172.313 302.024 172.405 302.738 172.672Z" fill="#263238"/>
<path d="M314.335 195.348H217.692V204.396H314.335V195.348Z" fill="#FAFAFA"/>
<path d="M222.771 198.302H220.003V201.038H222.771V198.302Z" fill="#E8B12B"/>
<path d="M265.428 199.618C265.428 199.773 256.474 199.887 245.426 199.887C234.378 199.887 225.424 199.773 225.424 199.618C225.424 199.462 234.378 199.348 245.426 199.348C256.474 199.348 265.428 199.514 265.428 199.618Z" fill="#263238"/>
<path d="M303.132 199.618C302.414 199.885 301.643 199.977 300.883 199.887C300.109 199.982 299.323 199.889 298.592 199.618C299.315 199.357 300.088 199.265 300.852 199.348C301.622 199.259 302.403 199.352 303.132 199.618V199.618Z" fill="#263238"/>
<path d="M314.335 204.261H217.692V213.308H314.335V204.261Z" fill="#E0E0E0"/>
<path d="M222.771 207.215H220.003V209.951H222.771V207.215Z" fill="#E8B12B"/>
<path d="M265.428 208.572C265.428 208.728 256.474 208.842 245.426 208.842C234.378 208.842 225.424 208.728 225.424 208.572C225.424 208.417 234.378 208.303 245.426 208.303C256.474 208.303 265.428 208.427 265.428 208.572Z" fill="#263238"/>
<path d="M303.132 208.5C302.413 208.761 301.643 208.853 300.883 208.769C300.119 208.852 299.346 208.76 298.624 208.5C299.346 208.239 300.119 208.147 300.883 208.23C301.643 208.146 302.413 208.238 303.132 208.5Z" fill="#263238"/>
<path d="M314.335 213.174H217.692V222.221H314.335V213.174Z" fill="#FAFAFA"/>
<path d="M222.771 216.127H220.003V218.864H222.771V216.127Z" fill="#E8B12B"/>
<path d="M265.428 217.485C265.428 217.63 256.474 217.754 245.426 217.754C234.378 217.754 225.424 217.63 225.424 217.485C225.424 217.34 234.378 217.216 245.426 217.216C256.474 217.216 265.428 217.33 265.428 217.485Z" fill="#263238"/>
<path d="M303.132 217.413C302.413 217.674 301.643 217.766 300.883 217.682C300.119 217.765 299.346 217.673 298.624 217.413C299.345 217.146 300.119 217.054 300.883 217.143C301.643 217.053 302.414 217.145 303.132 217.413V217.413Z" fill="#263238"/>
<path d="M314.335 222.087H217.692V231.134H314.335V222.087Z" fill="#EBEBEB"/>
<path d="M222.771 225.03H220.003V227.766H222.771V225.03Z" fill="#E8B12B"/>
<path d="M265.428 226.398C265.428 226.543 256.474 226.667 245.426 226.667C234.378 226.667 225.424 226.543 225.424 226.398C225.424 226.253 234.378 226.128 245.426 226.128C256.474 226.128 265.428 226.242 265.428 226.398Z" fill="#263238"/>
<path d="M303.132 226.315C302.414 226.582 301.643 226.675 300.883 226.584C300.119 226.674 299.345 226.581 298.624 226.315C299.346 226.054 300.119 225.962 300.883 226.045C301.643 225.962 302.413 226.054 303.132 226.315Z" fill="#263238"/>
<path d="M314.335 177.346H217.682V186.394H314.335V177.346Z" fill="#FAFAFA"/>
<path d="M223.102 180.3H220.366V183.036H223.102V180.3Z" fill="#E8B12B"/>
<path d="M248.431 181.657C248.431 181.813 243.353 181.927 237.093 181.927C230.834 181.927 225.755 181.813 225.755 181.657C225.755 181.502 230.834 181.388 237.093 181.388C243.353 181.388 248.431 181.512 248.431 181.657Z" fill="#263238"/>
<path d="M302.738 181.927C302.022 182.187 301.256 182.28 300.499 182.196C299.746 182.28 298.983 182.188 298.271 181.927C298.981 181.659 299.746 181.567 300.499 181.657C301.256 181.568 302.024 181.66 302.738 181.927Z" fill="#263238"/>
<path d="M302.738 190.705C302.022 190.966 301.256 191.058 300.499 190.974C299.746 191.059 298.983 190.966 298.271 190.705C298.981 190.438 299.746 190.345 300.499 190.436C301.256 190.346 302.024 190.438 302.738 190.705Z" fill="#263238"/>
<path d="M223.102 189.337H220.366V192.073H223.102V189.337Z" fill="#E8B12B"/>
<path d="M280.383 190.695C280.383 190.84 268.154 190.964 253.074 190.964C237.995 190.964 225.755 190.84 225.755 190.695C225.755 190.549 237.985 190.425 253.074 190.425C268.164 190.425 280.383 190.539 280.383 190.695Z" fill="#263238"/>
<path d="M191.13 161.666C191.13 161.883 191.044 162.091 190.89 162.244C190.736 162.398 190.528 162.484 190.311 162.484C190.203 162.486 190.095 162.465 189.995 162.425C189.894 162.384 189.803 162.324 189.725 162.248C189.648 162.172 189.587 162.081 189.545 161.981C189.503 161.881 189.482 161.774 189.482 161.666C189.482 161.557 189.503 161.449 189.545 161.348C189.587 161.248 189.648 161.156 189.725 161.079C189.802 161.002 189.893 160.941 189.994 160.9C190.094 160.858 190.202 160.836 190.311 160.836C190.419 160.836 190.527 160.858 190.627 160.9C190.727 160.942 190.818 161.003 190.894 161.08C190.97 161.157 191.03 161.249 191.07 161.349C191.111 161.45 191.131 161.557 191.13 161.666V161.666Z" fill="#263238"/>
<path d="M194.353 161.666C194.353 161.885 194.266 162.096 194.11 162.252C193.955 162.407 193.744 162.495 193.524 162.495C193.304 162.495 193.093 162.407 192.938 162.252C192.782 162.096 192.695 161.885 192.695 161.666C192.695 161.446 192.782 161.235 192.938 161.079C193.093 160.924 193.304 160.836 193.524 160.836C193.744 160.836 193.955 160.924 194.11 161.079C194.266 161.235 194.353 161.446 194.353 161.666Z" fill="#263238"/>
<path d="M197.566 161.666C197.566 161.774 197.544 161.881 197.502 161.981C197.461 162.081 197.399 162.172 197.322 162.248C197.245 162.324 197.154 162.384 197.053 162.425C196.953 162.465 196.845 162.486 196.737 162.484C196.52 162.484 196.311 162.398 196.158 162.244C196.004 162.091 195.918 161.883 195.918 161.666C195.917 161.557 195.937 161.45 195.977 161.349C196.018 161.249 196.078 161.157 196.154 161.08C196.23 161.003 196.321 160.942 196.421 160.9C196.521 160.858 196.628 160.836 196.737 160.836C196.846 160.836 196.953 160.858 197.054 160.9C197.155 160.941 197.246 161.002 197.323 161.079C197.4 161.156 197.461 161.248 197.503 161.348C197.544 161.449 197.566 161.557 197.566 161.666V161.666Z" fill="#263238"/>
<path d="M314.335 231.124C314.335 229.466 314.335 203.307 314.221 159.344L314.335 159.468H186.86L187.026 159.313C187.026 184.694 187.026 208.976 187.026 231.093L186.87 230.937L314.345 231.093L186.87 231.248H186.663V231.093C186.663 208.976 186.663 184.694 186.663 159.313V159.199H186.829H314.304H314.428V159.323C314.387 203.307 314.345 229.476 314.335 231.124Z" fill="#263238"/>
<path d="M376.674 436.805H368.88L351.5 280.705H361.719L376.674 436.805Z" fill="#455A64"/>
<path d="M327.393 436.805H319.6L302.085 280.705H312.314L327.393 436.805Z" fill="#455A64"/>
<path d="M379.067 280.705H167.5H104.343V271.688H379.067V280.705Z" fill="#455A64"/>
<path d="M161.365 436.805H169.158L185.875 280.705H175.646L161.365 436.805Z" fill="#263238"/>
<path d="M94.4974 436.805H102.291L119.796 280.705H109.566L94.4974 436.805Z" fill="#263238"/>
<path d="M188.984 271.688H104.343V280.705H188.984V271.688Z" fill="#263238"/>
<path d="M286.197 268.993H227.745V271.688H286.197V268.993Z" fill="#263238"/>
<path d="M352.557 401.288L358.081 431.664L320.356 438.732C319.9 435.084 338.068 424.223 338.068 424.223L333.736 404.915L352.557 401.288Z" fill="#E8B12B"/>
<g opacity="0.6">
<path d="M349.375 420.367C349.759 420.408 350.114 420.59 350.373 420.877C350.631 421.164 350.774 421.536 350.774 421.922C350.745 422.307 350.57 422.666 350.285 422.926C350 423.186 349.626 423.328 349.24 423.321C348.835 423.273 348.461 423.077 348.189 422.772C347.918 422.466 347.768 422.072 347.769 421.663C347.838 421.262 348.06 420.904 348.39 420.666C348.719 420.428 349.129 420.328 349.531 420.388" fill="white"/>
</g>
<g opacity="0.6">
<path d="M358.081 431.664L357.407 428.617L321.465 436.535C321.465 436.535 319.921 437.571 320.336 438.732L358.081 431.664Z" fill="white"/>
</g>
<path d="M337.405 424.109C337.405 424.295 338.379 424.202 339.405 424.627C340.431 425.052 341.043 425.736 341.198 425.663C341.354 425.591 340.887 424.555 339.644 424.057C338.4 423.56 337.332 423.943 337.405 424.109Z" fill="#263238"/>
<path d="M333.747 426.482C333.747 426.669 334.596 426.834 335.374 427.518C336.151 428.203 336.483 428.969 336.659 428.928C336.835 428.887 336.762 427.829 335.788 427.021C334.814 426.213 333.726 426.306 333.747 426.482Z" fill="#263238"/>
<path d="M332.389 431.643C332.565 431.643 332.648 430.69 331.985 429.767C331.321 428.845 330.389 428.607 330.337 428.731C330.285 428.855 330.928 429.342 331.456 430.099C331.985 430.856 332.202 431.664 332.389 431.643Z" fill="#263238"/>
<path d="M336.939 419.601C337.042 419.746 337.84 419.342 338.897 419.217C339.954 419.093 340.825 419.269 340.887 419.093C340.949 418.917 340.058 418.398 338.814 418.564C337.571 418.73 336.783 419.466 336.939 419.601Z" fill="#263238"/>
<path d="M336.939 414.947C337.592 415.002 338.248 414.877 338.835 414.584C339.493 414.334 340.119 414.007 340.701 413.61C341.043 413.37 341.368 413.107 341.675 412.823C341.865 412.666 342.029 412.481 342.162 412.273C342.27 412.116 342.318 411.926 342.299 411.736C342.28 411.547 342.195 411.37 342.058 411.237C341.942 411.127 341.802 411.046 341.649 410.999C341.497 410.952 341.335 410.941 341.177 410.967C340.937 411.012 340.703 411.089 340.483 411.195C340.1 411.371 339.732 411.579 339.384 411.817C338.801 412.227 338.284 412.723 337.851 413.289C337.136 414.263 336.959 415.009 337.032 415.04C337.104 415.072 337.446 414.429 338.213 413.59C338.657 413.105 339.163 412.68 339.716 412.325C340.046 412.116 340.392 411.936 340.752 411.786C341.136 411.6 341.468 411.537 341.613 411.693C341.758 411.848 341.665 411.786 341.613 411.911C341.517 412.063 341.398 412.199 341.26 412.315C340.96 412.595 340.659 412.854 340.369 413.082C339.835 413.478 339.266 413.825 338.669 414.118C338.076 414.358 337.498 414.635 336.939 414.947V414.947Z" fill="#263238"/>
<path d="M337.249 415.185C337.508 414.58 337.563 413.907 337.405 413.268C337.313 412.562 337.095 411.877 336.762 411.247C336.565 410.88 336.333 410.533 336.068 410.211C335.919 409.98 335.713 409.792 335.469 409.665C335.226 409.537 334.954 409.476 334.679 409.485C334.512 409.519 334.359 409.601 334.237 409.721C334.116 409.84 334.032 409.993 333.995 410.159C333.938 410.396 333.913 410.64 333.923 410.884C333.94 411.319 334.02 411.748 334.161 412.159C334.4 412.849 334.806 413.468 335.342 413.963C336.254 414.802 337.073 414.875 337.073 414.812C337.073 414.75 336.41 414.47 335.664 413.641C335.237 413.16 334.922 412.59 334.741 411.973C334.629 411.617 334.57 411.247 334.565 410.874C334.565 410.46 334.638 410.107 334.793 410.128C334.949 410.149 335.363 410.325 335.57 410.615C335.818 410.91 336.04 411.226 336.234 411.558C336.557 412.127 336.801 412.737 336.959 413.372C337.218 414.429 337.146 415.185 337.249 415.185Z" fill="#263238"/>
<path d="M308.552 406.179L314.491 436.483L276.828 444.049C276.331 440.411 294.354 429.27 294.354 429.27L289.762 410.004L308.552 406.179Z" fill="#E8B12B"/>
<g opacity="0.6">
<path d="M305.671 425.301C306.055 425.336 306.412 425.513 306.674 425.796C306.936 426.079 307.085 426.449 307.091 426.834C307.069 427.22 306.9 427.583 306.619 427.847C306.337 428.112 305.964 428.258 305.578 428.254C305.163 428.218 304.779 428.025 304.502 427.715C304.225 427.405 304.076 427.001 304.085 426.586C304.147 426.186 304.362 425.827 304.686 425.585C305.01 425.342 305.415 425.237 305.816 425.29" fill="white"/>
</g>
<g opacity="0.6">
<path d="M314.49 436.483L313.765 433.447L277.937 441.841C277.937 441.841 276.403 442.878 276.828 444.049L314.49 436.483Z" fill="white"/>
</g>
<path d="M293.711 429.197C293.711 429.384 294.685 429.28 295.711 429.695C296.737 430.109 297.369 430.731 297.525 430.669C297.68 430.607 297.193 429.56 295.939 429.083C294.685 428.607 293.638 429.042 293.711 429.197Z" fill="#263238"/>
<path d="M290.084 431.633C290.084 431.819 290.944 431.964 291.721 432.617C292.498 433.27 292.851 434.058 293.027 434.017C293.203 433.975 293.12 432.908 292.136 432.11C291.151 431.312 290.053 431.457 290.084 431.633Z" fill="#263238"/>
<path d="M288.799 436.804C288.964 436.804 289.037 435.841 288.363 434.928C287.69 434.016 286.747 433.788 286.705 433.965C286.664 434.141 287.296 434.555 287.835 435.322C288.374 436.089 288.612 436.825 288.799 436.804Z" fill="#263238"/>
<path d="M293.151 424.7C293.255 424.845 294.053 424.43 295.1 424.285C296.146 424.14 297.038 424.285 297.1 424.14C297.162 423.995 296.25 423.466 295.027 423.642C293.804 423.819 293.027 424.575 293.151 424.7Z" fill="#263238"/>
<path d="M293.141 420.046C293.793 420.1 294.448 419.967 295.027 419.663C295.684 419.392 296.307 419.044 296.882 418.626C297.221 418.385 297.543 418.122 297.846 417.839C298.033 417.678 298.194 417.489 298.323 417.279C298.429 417.121 298.476 416.931 298.457 416.742C298.438 416.553 298.354 416.377 298.219 416.243C298.101 416.133 297.959 416.053 297.804 416.008C297.65 415.963 297.486 415.954 297.328 415.984C297.086 416.027 296.851 416.107 296.634 416.222C296.255 416.403 295.891 416.615 295.545 416.854C294.969 417.273 294.459 417.776 294.032 418.347C293.328 419.331 293.162 420.077 293.234 420.108C293.307 420.139 293.638 419.487 294.395 418.637C294.837 418.148 295.339 417.717 295.887 417.352C296.22 417.145 296.566 416.961 296.924 416.802C297.297 416.616 297.639 416.543 297.774 416.709C297.908 416.875 297.836 416.792 297.774 416.927C297.679 417.079 297.56 417.216 297.421 417.331C297.146 417.606 296.851 417.863 296.54 418.098C296.016 418.497 295.454 418.844 294.861 419.134C294.269 419.402 293.695 419.706 293.141 420.046V420.046Z" fill="#263238"/>
<path d="M293.411 420.264C293.653 419.654 293.697 418.983 293.535 418.347C293.431 417.639 293.203 416.954 292.861 416.326C292.661 415.958 292.425 415.611 292.156 415.289C292.003 415.062 291.794 414.878 291.549 414.755C291.304 414.631 291.031 414.573 290.757 414.584C290.591 414.624 290.439 414.709 290.319 414.83C290.198 414.95 290.113 415.102 290.073 415.268C290.022 415.507 290.004 415.751 290.022 415.994C290.048 416.427 290.142 416.854 290.301 417.258C290.545 417.942 290.954 418.555 291.493 419.041C292.426 419.87 293.234 419.932 293.245 419.87C293.255 419.808 292.571 419.538 291.825 418.72C291.39 418.243 291.065 417.677 290.871 417.061C290.756 416.706 290.693 416.336 290.685 415.963C290.685 415.559 290.747 415.206 290.902 415.217C291.058 415.227 291.472 415.414 291.69 415.693C291.941 415.985 292.166 416.297 292.364 416.626C292.693 417.191 292.944 417.797 293.11 418.429C293.411 419.528 293.328 420.253 293.411 420.264Z" fill="#263238"/>
<path d="M330.523 412.242L315.89 330.72C315.171 326.695 315.529 322.551 316.926 318.709V318.709C318.543 314.193 321.513 310.285 325.432 307.52C329.351 304.755 334.028 303.266 338.825 303.256H390.478L424.223 318.211C424.225 321.097 423.629 323.951 422.474 326.596C421.319 329.24 419.629 331.616 417.511 333.576C415.393 335.535 412.892 337.035 410.166 337.982C407.44 338.928 404.548 339.299 401.671 339.074L346.556 334.752L354.495 408.594L330.523 412.242Z" fill="#263238"/>
<path d="M287.804 416.554L271.097 330.72C270.384 326.695 270.742 322.553 272.134 318.709V318.709C273.75 314.193 276.721 310.285 280.64 307.52C284.559 304.755 289.236 303.266 294.032 303.256H345.686L379.43 318.242V340.877L301.753 334.783L311.92 411.061L287.804 416.554Z" fill="#263238"/>
<path d="M311.931 411.04C311.931 411.04 311.858 410.729 311.754 410.128C311.651 409.527 311.526 408.594 311.361 407.485C311.019 405.153 310.552 401.847 309.972 397.785C308.853 389.494 307.319 378.239 305.619 365.75C304.054 353.759 302.624 342.856 301.567 334.783L301.65 334.928C297.95 332.379 295.141 330.099 293.12 328.617L290.809 326.896C290.523 326.715 290.253 326.51 290.001 326.285L290.229 326.409L290.871 326.803C291.421 327.166 292.229 327.715 293.245 328.44C295.317 329.871 298.167 332.109 301.867 334.596L301.94 334.648V334.731C303.028 342.805 304.51 353.697 306.137 365.688C307.775 378.176 309.246 389.525 310.335 397.743C310.842 401.806 311.257 405.112 311.547 407.465C311.672 408.573 311.775 409.454 311.848 410.107C311.903 410.415 311.931 410.727 311.931 411.04V411.04Z" fill="#455A64"/>
<path d="M263.034 269.18L266.692 262.319C266.904 262.003 267.193 261.747 267.533 261.576C267.873 261.405 268.251 261.326 268.631 261.345L270.268 261.417L273.056 258.816H276.31L278.818 257.147L288.477 259.003L296.437 261.138L291.908 270.092L287.368 269.138L279.741 269.004C277.536 268.965 275.432 268.077 273.864 266.527V266.527C272.505 265.195 270.678 264.451 268.776 264.454V264.454C268.776 264.454 266.382 269.833 263.034 269.18Z" fill="#FFBE9D"/>
<path d="M373.212 165.811L373.367 215.443L352.07 216.48L351.448 204.385C351.448 204.385 343.882 205.888 341.934 198.861C340.69 194.374 341.001 159.707 341.001 159.707L373.212 165.811Z" fill="#FFBE9D"/>
<path d="M373.533 204.675C375.803 202.323 376.85 199.048 377.378 195.825C377.907 192.601 377.99 189.306 378.705 186.114C379.441 182.756 380.861 179.584 381.576 176.227C382.291 172.869 382.239 169.117 380.249 166.319C380.249 166.319 378.933 162.474 373.316 162.173C373.316 162.173 368.538 154.442 361.48 155.115C351.894 156.027 351.634 153.208 345.022 152.172C344.244 151.984 343.436 151.953 342.645 152.08C341.854 152.206 341.096 152.488 340.415 152.909C339.733 153.33 339.142 153.882 338.675 154.533C338.209 155.184 337.876 155.921 337.695 156.701C337.695 156.701 334.306 159.219 334.151 162.857V162.95C334.1 164.749 334.63 166.515 335.662 167.988C336.694 169.461 338.174 170.562 339.882 171.128L341.157 171.552C342.395 171.847 343.548 172.425 344.525 173.242C345.862 174.579 346.079 176.651 346.007 178.538C345.934 180.424 345.675 182.372 346.307 184.145C346.525 184.746 347.043 185.409 347.665 185.243C348.287 185.077 348.37 184.02 348.442 183.253C348.66 181.035 351.552 179.346 353.521 180.973C354.142 181.441 354.583 182.108 354.772 182.863C354.96 183.617 354.885 184.413 354.557 185.119C353.811 186.673 352.184 187.896 351.873 189.637C351.344 192.55 354.764 195.099 356.07 196.685C356.516 197.257 357.016 197.784 357.563 198.26C360.392 200.633 363.159 203.929 366.89 205.214C369.377 206.074 372.414 205.857 374.3 204.022" fill="#263238"/>
<path d="M348.339 214.055C343.644 217.413 345.572 226.408 345.509 231.124C345.375 241.654 346.37 251.541 346.919 253.189C347.727 255.614 350.65 276.196 350.65 276.196L345.686 303.256C345.686 303.256 352.028 319.434 379.441 319.279L393.1 316.014C396.404 315.225 399.314 313.276 401.301 310.521C403.289 307.767 404.222 304.391 403.93 301.007L400.821 264.62L396.676 235.093C395.639 219.599 385.887 211.35 373.481 212.231L348.339 214.055Z" fill="#E8B12B"/>
<g opacity="0.5">
<path d="M359.542 315.765C356.537 314.211 360.578 283.917 364.071 268.403C365.439 262.35 367.253 256.101 371.554 251.624C375.082 248.204 379.529 245.885 384.353 244.949C388.803 244.036 393.336 243.591 397.878 243.623L402.169 312.584C402.169 312.584 372.445 322.481 359.542 315.765Z" fill="black"/>
</g>
<path d="M348.339 214.055C345.464 214.607 342.759 215.829 340.444 217.62C338.129 219.411 336.268 221.723 335.011 224.367C331.56 231.528 316.46 261.345 316.46 261.345L293.379 259.811L288.767 270.341L320.356 278.829C326.886 280.083 332.586 276.103 335.799 270.216L349.064 245.944L348.339 214.055Z" fill="#E8B12B"/>
<path d="M350.598 214.055C350.598 214.055 350.018 208.779 350.774 207.836C351.531 206.893 374.435 207.08 374.435 207.08L375.647 213.132L373.098 217.651L351.334 219.547L350.598 214.055Z" fill="#E8B12B"/>
<path d="M319.154 266.547C317.75 265.311 316.886 263.574 316.75 261.708C317.565 263.314 318.367 264.927 319.154 266.547V266.547Z" fill="#263238"/>
<path d="M352.225 237.705C351.256 240.497 350.117 243.228 348.815 245.882C347.671 248.609 346.366 251.267 344.908 253.841C345.878 251.049 347.016 248.318 348.318 245.664C349.458 242.934 350.763 240.276 352.225 237.705V237.705Z" fill="#263238"/>
<path d="M375.451 212.21C375.451 212.21 375.585 212.438 375.585 212.935C375.583 213.303 375.464 213.66 375.247 213.956C375.029 214.252 374.723 214.472 374.373 214.583V214.583C371.979 214.728 368.154 214.905 363.771 215.06C360.081 215.195 356.765 215.288 354.308 215.319C353.331 215.328 352.365 215.12 351.479 214.708C350.857 214.376 350.619 214.065 350.64 214.044C350.66 214.024 350.95 214.262 351.562 214.511C352.443 214.835 353.381 214.979 354.319 214.936C356.702 214.801 360.06 214.656 363.75 214.521C368.103 214.366 371.968 214.272 374.373 214.252C374.674 214.164 374.942 213.987 375.141 213.745C375.341 213.503 375.463 213.206 375.492 212.894C375.461 212.469 375.409 212.21 375.451 212.21Z" fill="#263238"/>
<path d="M337.332 220.698C337.467 220.76 332.928 229.787 327.197 240.856C321.465 251.924 316.719 260.847 316.584 260.765C316.449 260.682 320.989 251.665 326.72 240.597C332.451 229.528 337.198 220.625 337.332 220.698Z" fill="#263238"/>
<path d="M346.017 227.331C346.017 227.331 346.214 227.268 346.546 227.414C346.788 227.513 347.007 227.663 347.186 227.854C347.365 228.046 347.5 228.274 347.582 228.522C347.684 228.903 347.668 229.305 347.534 229.676C347.401 230.047 347.157 230.367 346.836 230.595C346.452 230.865 345.988 230.997 345.52 230.968C345.064 230.968 344.618 230.885 344.183 230.854C343.802 230.815 343.417 230.864 343.057 230.997C342.698 231.13 342.374 231.344 342.11 231.621C341.888 231.851 341.713 232.121 341.595 232.418C341.478 232.715 341.421 233.033 341.426 233.352C341.479 233.968 341.663 234.565 341.965 235.103C341.965 235.166 341.188 234.679 341.043 233.373C341.012 232.997 341.059 232.62 341.18 232.263C341.302 231.907 341.495 231.579 341.747 231.3C342.061 230.954 342.451 230.686 342.886 230.519C343.322 230.351 343.791 230.289 344.255 230.336C345.188 230.429 346.028 230.616 346.587 230.212C346.84 230.041 347.036 229.799 347.152 229.517C347.268 229.235 347.299 228.925 347.24 228.626C347.14 228.201 346.88 227.83 346.515 227.59C346.183 227.414 346.007 227.372 346.017 227.331Z" fill="#FAFAFA"/>
<path d="M376.611 227.662C376.611 227.662 376.819 227.611 377.15 227.745C377.383 227.854 377.59 228.009 377.76 228.202C377.929 228.394 378.057 228.62 378.135 228.865C378.238 229.244 378.223 229.646 378.092 230.016C377.96 230.387 377.718 230.708 377.399 230.937C377.009 231.194 376.549 231.324 376.083 231.31C375.616 231.31 375.181 231.217 374.746 231.186C374.364 231.148 373.978 231.199 373.619 231.334C373.26 231.468 372.936 231.684 372.673 231.963C372.451 232.193 372.276 232.463 372.158 232.761C372.041 233.058 371.984 233.375 371.989 233.694C372.036 234.311 372.22 234.909 372.528 235.446C372.528 235.497 371.751 235.01 371.606 233.715C371.576 233.34 371.622 232.964 371.741 232.608C371.861 232.251 372.051 231.923 372.3 231.642C372.614 231.293 373.005 231.023 373.443 230.854C373.88 230.685 374.352 230.621 374.818 230.668C375.751 230.761 376.58 230.948 377.15 230.544C377.402 230.374 377.598 230.134 377.714 229.854C377.83 229.574 377.861 229.266 377.803 228.968C377.696 228.546 377.438 228.177 377.078 227.932C376.788 227.756 376.601 227.704 376.611 227.662Z" fill="#FAFAFA"/>
<path d="M376.238 249.789C376.238 249.789 376.238 250.007 376.031 250.297C375.872 250.498 375.673 250.664 375.446 250.784C375.22 250.903 374.97 250.974 374.715 250.991C374.317 251.002 373.926 250.891 373.595 250.672C373.263 250.453 373.006 250.138 372.86 249.768C372.71 249.325 372.71 248.844 372.86 248.4C372.974 247.955 373.16 247.54 373.295 247.136C373.425 246.768 373.471 246.376 373.428 245.988C373.385 245.6 373.254 245.227 373.046 244.897C372.691 244.368 372.145 243.997 371.523 243.861C370.914 243.763 370.291 243.802 369.699 243.975C369.95 243.744 370.255 243.578 370.586 243.493C370.917 243.408 371.263 243.407 371.595 243.488C371.971 243.544 372.332 243.678 372.653 243.881C372.974 244.085 373.249 244.353 373.461 244.669C373.725 245.056 373.894 245.5 373.953 245.965C374.013 246.43 373.961 246.902 373.803 247.343C373.492 248.224 373.108 248.991 373.367 249.634C373.469 249.923 373.654 250.176 373.9 250.361C374.145 250.545 374.439 250.653 374.746 250.67C375.179 250.668 375.596 250.506 375.917 250.214C376.114 249.945 376.207 249.779 376.238 249.789Z" fill="#FAFAFA"/>
<path d="M362.848 281.181C362.848 281.181 362.848 281.399 362.641 281.679C362.481 281.881 362.28 282.047 362.051 282.167C361.823 282.286 361.572 282.357 361.314 282.373C360.918 282.385 360.528 282.275 360.196 282.058C359.865 281.841 359.607 281.528 359.459 281.161C359.314 280.712 359.314 280.23 359.459 279.782C359.573 279.336 359.76 278.932 359.895 278.518C360.03 278.153 360.079 277.761 360.035 277.374C359.992 276.987 359.859 276.616 359.646 276.29C359.474 276.025 359.253 275.798 358.993 275.62C358.733 275.442 358.441 275.317 358.133 275.253C357.525 275.152 356.901 275.187 356.309 275.357C356.246 275.357 356.899 274.704 358.205 274.88C358.58 274.937 358.939 275.071 359.26 275.272C359.58 275.473 359.856 275.739 360.071 276.051C360.332 276.439 360.499 276.883 360.558 277.348C360.618 277.812 360.568 278.283 360.413 278.725C360.091 279.616 359.708 280.373 359.967 281.015C360.066 281.306 360.251 281.561 360.497 281.746C360.743 281.93 361.038 282.037 361.345 282.052C361.783 282.055 362.205 281.892 362.527 281.596C362.693 281.326 362.786 281.161 362.848 281.181Z" fill="#FAFAFA"/>
<path d="M390.323 235.269C390.323 235.269 390.53 235.269 390.862 235.352C391.105 235.454 391.323 235.606 391.502 235.799C391.68 235.992 391.816 236.221 391.898 236.471C392.001 236.851 391.986 237.253 391.855 237.623C391.723 237.994 391.482 238.315 391.162 238.544C390.773 238.803 390.312 238.93 389.846 238.907C389.38 238.907 388.934 238.824 388.509 238.793C388.128 238.756 387.743 238.805 387.384 238.938C387.025 239.071 386.701 239.284 386.436 239.56C386.213 239.79 386.037 240.063 385.92 240.362C385.802 240.661 385.745 240.98 385.752 241.301C385.796 241.915 385.98 242.511 386.291 243.042C386.291 243.104 385.514 242.617 385.369 241.322C385.338 240.947 385.384 240.57 385.503 240.214C385.623 239.858 385.813 239.53 386.063 239.249C386.377 238.9 386.768 238.63 387.206 238.461C387.643 238.292 388.115 238.228 388.582 238.275C389.514 238.368 390.343 238.555 390.903 238.15C391.156 237.982 391.355 237.743 391.473 237.463C391.591 237.183 391.623 236.874 391.566 236.575C391.459 236.153 391.201 235.784 390.841 235.539C390.499 235.363 390.312 235.311 390.323 235.269Z" fill="#FAFAFA"/>
<path d="M358.371 263.076C358.371 263.076 358.215 262.93 358.164 262.568C358.132 262.314 358.154 262.056 358.229 261.811C358.304 261.566 358.43 261.34 358.599 261.148C358.87 260.856 359.225 260.656 359.615 260.574C360.004 260.493 360.41 260.534 360.775 260.692C361.214 260.88 361.579 261.208 361.812 261.625C362.05 262.029 362.206 262.443 362.402 262.837C362.571 263.189 362.817 263.497 363.122 263.74C363.427 263.982 363.784 264.152 364.164 264.236C364.786 264.357 365.431 264.227 365.957 263.874C366.458 263.513 366.872 263.046 367.17 262.506C367.222 262.506 367.17 263.386 366.133 264.195C365.828 264.418 365.48 264.577 365.111 264.661C364.742 264.745 364.36 264.752 363.988 264.682C363.528 264.594 363.095 264.399 362.724 264.113C362.353 263.827 362.055 263.457 361.853 263.034C361.449 262.184 361.18 261.376 360.537 261.106C360.261 260.978 359.954 260.935 359.653 260.981C359.353 261.027 359.072 261.161 358.848 261.365C358.543 261.678 358.362 262.09 358.34 262.526C358.35 262.837 358.412 263.055 358.371 263.076Z" fill="#FAFAFA"/>
<path d="M359.874 242.275C359.874 242.275 360.081 242.213 360.402 242.358C360.646 242.456 360.865 242.606 361.044 242.798C361.223 242.989 361.358 243.218 361.439 243.467C361.542 243.847 361.527 244.248 361.395 244.619C361.264 244.989 361.022 245.311 360.703 245.54C360.311 245.801 359.847 245.932 359.376 245.913C358.92 245.913 358.475 245.82 358.05 245.789C357.668 245.755 357.284 245.807 356.925 245.942C356.566 246.076 356.242 246.29 355.977 246.566C355.755 246.795 355.58 247.066 355.462 247.363C355.345 247.66 355.287 247.978 355.293 248.297C355.346 248.914 355.534 249.511 355.842 250.048C355.842 250.1 355.065 249.623 354.92 248.318C354.885 247.943 354.929 247.565 355.048 247.208C355.168 246.851 355.361 246.523 355.614 246.245C355.926 245.897 356.316 245.628 356.752 245.46C357.188 245.292 357.658 245.231 358.122 245.281C359.065 245.374 359.894 245.561 360.454 245.157C360.708 244.987 360.907 244.746 361.023 244.464C361.139 244.181 361.168 243.87 361.107 243.571C361.004 243.149 360.75 242.78 360.392 242.535C360.05 242.358 359.863 242.317 359.874 242.275Z" fill="#FAFAFA"/>
<path d="M359.252 291.493C359.252 291.493 359.459 291.493 359.78 291.576C360.022 291.679 360.24 291.832 360.418 292.025C360.597 292.218 360.733 292.446 360.817 292.695C360.92 293.075 360.905 293.477 360.774 293.847C360.642 294.217 360.4 294.539 360.081 294.768C359.687 295.025 359.224 295.155 358.754 295.141C358.298 295.141 357.853 295.048 357.417 295.017C357.036 294.98 356.65 295.031 356.291 295.166C355.932 295.3 355.608 295.515 355.345 295.794C355.121 296.022 354.945 296.293 354.828 296.59C354.71 296.888 354.653 297.205 354.661 297.525C354.716 298.137 354.899 298.73 355.2 299.266C355.2 299.328 354.433 298.841 354.277 297.546C354.246 297.17 354.293 296.793 354.414 296.436C354.535 296.079 354.729 295.752 354.982 295.473C355.294 295.124 355.683 294.854 356.119 294.685C356.555 294.515 357.025 294.452 357.49 294.499C358.423 294.592 359.262 294.778 359.822 294.374C360.075 294.207 360.273 293.967 360.389 293.687C360.506 293.406 360.535 293.097 360.475 292.799C360.375 292.376 360.12 292.006 359.76 291.763C359.428 291.586 359.241 291.535 359.252 291.493Z" fill="#FAFAFA"/>
<path d="M329.933 265.262C329.933 265.262 330.14 265.2 330.471 265.345C330.706 265.451 330.915 265.605 331.085 265.798C331.255 265.991 331.381 266.218 331.456 266.464C331.564 266.844 331.551 267.247 331.419 267.618C331.287 267.99 331.043 268.311 330.72 268.537C330.336 268.807 329.872 268.938 329.404 268.91C328.938 268.91 328.502 268.827 328.067 268.796C327.686 268.759 327.302 268.809 326.942 268.941C326.583 269.074 326.259 269.287 325.994 269.563C325.771 269.794 325.595 270.066 325.478 270.365C325.36 270.664 325.303 270.983 325.31 271.304C325.359 271.918 325.543 272.512 325.849 273.046C325.849 273.108 325.072 272.621 324.927 271.315C324.895 270.939 324.941 270.561 325.062 270.205C325.183 269.848 325.377 269.52 325.632 269.242C325.943 268.893 326.332 268.622 326.768 268.453C327.204 268.283 327.674 268.22 328.14 268.268C329.072 268.361 329.912 268.548 330.471 268.143C330.725 267.973 330.922 267.732 331.038 267.45C331.154 267.167 331.184 266.857 331.124 266.558C331.024 266.132 330.764 265.761 330.399 265.521C330.109 265.356 329.933 265.304 329.933 265.262Z" fill="#FAFAFA"/>
<path d="M337.757 250.929C337.757 250.929 337.757 251.136 337.623 251.458C337.495 251.681 337.322 251.874 337.115 252.026C336.908 252.178 336.671 252.284 336.42 252.339C336.031 252.41 335.629 252.36 335.27 252.195C334.91 252.03 334.61 251.758 334.41 251.416C334.184 251.006 334.097 250.533 334.161 250.069C334.161 249.603 334.327 249.178 334.399 248.742C334.474 248.361 334.461 247.968 334.36 247.592C334.26 247.217 334.074 246.869 333.819 246.576C333.61 246.334 333.355 246.134 333.068 245.99C332.782 245.846 332.47 245.76 332.15 245.737C331.536 245.737 330.928 245.868 330.368 246.12C330.306 246.12 330.855 245.385 332.171 245.364C332.559 245.356 332.945 245.43 333.302 245.582C333.659 245.734 333.98 245.96 334.244 246.245C334.561 246.589 334.793 247.002 334.921 247.453C335.049 247.903 335.069 248.376 334.98 248.836C334.804 249.758 334.544 250.566 334.886 251.168C335.034 251.436 335.257 251.655 335.528 251.796C335.799 251.938 336.106 251.997 336.41 251.966C336.838 251.894 337.224 251.669 337.498 251.333C337.654 251.095 337.716 250.919 337.757 250.929Z" fill="#FAFAFA"/>
<path d="M360.154 224.74C360.154 224.74 360.154 224.947 360.029 225.258C359.902 225.482 359.73 225.677 359.523 225.831C359.316 225.984 359.079 226.093 358.827 226.149C358.435 226.22 358.031 226.169 357.669 226.002C357.308 225.835 357.006 225.561 356.806 225.216C356.58 224.806 356.492 224.333 356.557 223.869C356.557 223.413 356.723 222.978 356.796 222.553C356.873 222.172 356.862 221.779 356.764 221.403C356.665 221.028 356.481 220.68 356.226 220.387C355.8 219.9 355.202 219.599 354.557 219.547C353.938 219.54 353.326 219.671 352.764 219.931C352.978 219.664 353.255 219.455 353.569 219.321C353.884 219.187 354.227 219.133 354.567 219.164C354.948 219.164 355.324 219.243 355.672 219.397C356.02 219.55 356.332 219.774 356.588 220.055C356.907 220.398 357.141 220.812 357.271 221.262C357.4 221.712 357.422 222.186 357.335 222.646C357.148 223.558 356.889 224.377 357.241 224.968C357.385 225.237 357.606 225.457 357.875 225.599C358.145 225.741 358.451 225.799 358.754 225.766C359.185 225.701 359.576 225.48 359.853 225.144C360.05 224.895 360.112 224.719 360.154 224.74Z" fill="#FAFAFA"/>
<path d="M390.188 222.957C390.188 222.957 390.188 223.165 390.053 223.486C389.926 223.709 389.753 223.902 389.546 224.054C389.338 224.206 389.102 224.312 388.851 224.367C388.462 224.44 388.059 224.39 387.699 224.225C387.339 224.06 387.039 223.787 386.84 223.444C386.614 223.034 386.527 222.561 386.592 222.097C386.592 221.631 386.757 221.206 386.83 220.77C386.905 220.389 386.891 219.996 386.791 219.62C386.69 219.245 386.505 218.897 386.25 218.604C385.83 218.116 385.233 217.815 384.591 217.765C383.973 217.764 383.362 217.895 382.798 218.148C382.736 218.148 383.296 217.413 384.602 217.392C384.981 217.39 385.357 217.468 385.705 217.62C386.053 217.771 386.365 217.994 386.623 218.273C386.942 218.615 387.175 219.029 387.303 219.48C387.431 219.93 387.45 220.404 387.359 220.864C387.182 221.786 386.923 222.595 387.276 223.196C387.42 223.464 387.641 223.683 387.911 223.825C388.18 223.967 388.486 224.026 388.789 223.994C389.219 223.929 389.608 223.703 389.877 223.361C390.084 223.123 390.146 222.947 390.188 222.957Z" fill="#FAFAFA"/>
<path d="M311.174 269.055C311.174 269.055 311.174 269.263 311.039 269.584C310.913 269.806 310.742 269.998 310.536 270.15C310.331 270.302 310.097 270.409 309.847 270.465C309.457 270.538 309.053 270.489 308.691 270.324C308.329 270.159 308.027 269.886 307.827 269.543C307.6 269.132 307.513 268.659 307.578 268.195C307.578 267.729 307.744 267.304 307.816 266.869C307.893 266.487 307.881 266.093 307.78 265.717C307.68 265.342 307.493 264.994 307.236 264.703C306.816 264.215 306.22 263.913 305.578 263.863C304.96 263.863 304.348 263.993 303.785 264.247C303.722 264.247 304.282 263.511 305.588 263.49C305.968 263.487 306.344 263.564 306.692 263.716C307.04 263.868 307.352 264.091 307.609 264.371C307.928 264.714 308.161 265.127 308.289 265.578C308.417 266.028 308.436 266.503 308.345 266.962C308.169 267.884 307.909 268.693 308.262 269.294C308.407 269.561 308.629 269.779 308.898 269.921C309.167 270.063 309.472 270.123 309.775 270.092C310.207 270.025 310.598 269.799 310.874 269.46C311.029 269.169 311.133 268.993 311.174 269.055Z" fill="#FAFAFA"/>
<path d="M359.304 345.665L358.485 436.804H363.667L364.061 347.479C364.061 347.479 364.32 343.395 367.429 343.126C370.538 342.856 417.175 345.199 417.175 345.199L430.918 436.804H436.887L423.414 345.209C423.414 345.209 384.249 331.964 364.786 336.047C364.786 336.047 360.112 335.187 359.853 338.773C359.594 342.359 359.304 345.665 359.304 345.665Z" fill="#E0E0E0"/>
<path d="M360.216 335.135C360.216 335.135 368.32 271.916 371.232 261.2C372.622 256.353 375.845 252.237 380.218 249.727C382.692 248.229 385.545 247.474 388.436 247.55L431.457 248.494C432.385 248.513 433.299 248.731 434.136 249.134C434.973 249.536 435.714 250.113 436.309 250.826C436.905 251.539 437.34 252.372 437.586 253.267C437.833 254.163 437.884 255.101 437.737 256.018L423.477 345.209C407.651 345.209 370.621 345.209 370.621 345.209C370.621 345.209 319.952 339.685 312.169 339.343C307.308 339.125 306.987 341.001 306.531 343.032C301.971 339.343 304.697 331.746 310.552 332.109L360.216 335.135Z" fill="#455A64"/>
<path d="M437.468 252.826C437.347 252.839 437.226 252.839 437.105 252.826H436.017L431.871 252.878L416.543 252.96H405.951H396.966C395.93 252.96 394.893 252.96 393.857 253.023C391.667 253.25 389.587 254.095 387.86 255.461C386.133 256.826 384.83 258.655 384.104 260.733C383.76 261.839 383.514 262.973 383.369 264.122C383.182 265.293 382.985 266.475 382.788 267.656C382.401 270.033 382.011 272.451 381.617 274.911C378.394 294.385 375.471 312.014 373.326 324.813C372.29 331.176 371.367 336.327 370.766 339.934C370.455 341.685 370.206 343.043 370.041 344.079C369.958 344.525 369.885 344.877 369.833 345.116C369.823 345.237 369.796 345.355 369.75 345.468C369.737 345.348 369.737 345.226 369.75 345.105C369.75 344.836 369.833 344.483 369.896 344.069C370.051 343.095 370.258 341.716 370.528 339.923C371.098 336.306 371.906 331.145 372.911 324.771C374.984 311.972 377.855 294.333 381.016 274.839C381.417 272.406 381.811 269.988 382.197 267.584C382.394 266.392 382.591 265.221 382.778 264.05C382.932 262.87 383.185 261.705 383.534 260.568C384.295 258.394 385.662 256.484 387.472 255.061C389.282 253.638 391.462 252.762 393.753 252.536C394.852 252.453 395.898 252.484 396.935 252.484H405.92H416.512L431.84 252.567L435.986 252.618H437.074L437.468 252.826Z" fill="#263238"/>
<path d="M306.438 345.665L304.075 436.805H309.257L310.594 347.624C310.594 347.624 310.656 342.307 314.739 342.753C317.848 343.095 364.942 348.567 364.942 348.567L380.788 436.805H386.757L370.621 345.209L312.905 337.954C311.704 337.779 310.478 337.963 309.381 338.483C308.534 338.909 307.821 339.56 307.318 340.364C306.816 341.168 306.543 342.095 306.531 343.043C306.262 346.619 306.438 345.665 306.438 345.665Z" fill="#EBEBEB"/>
<path d="M424.223 248.328C424.223 248.328 395.204 342.815 360.216 335.135L360.796 330.679C360.796 330.679 387.804 335.166 419.59 248.235L424.223 248.328Z" fill="#E8B12B"/>
<path d="M362.713 334.068C362.853 343.906 364.781 353.638 368.403 362.786C369.439 365.439 370.828 368.237 373.398 369.481C375.969 370.725 378.954 370.072 381.69 369.326C388.466 367.456 395.077 365.029 401.453 362.071C403.785 360.983 406.241 359.677 407.433 357.397C408.864 354.671 408.107 351.365 407.288 348.401C404.677 338.887 401.744 329.463 398.489 320.128C397.816 318.19 394.696 310.687 394.696 310.687" fill="#E8B12B"/>
<path d="M398.178 321.911C398.208 322.079 398.208 322.251 398.178 322.419C398.178 322.751 398.178 323.238 398.085 323.86C397.912 325.63 397.583 327.381 397.101 329.093C396.386 331.656 395.301 334.1 393.878 336.348C392.124 339.1 389.807 341.449 387.079 343.24C384.355 345.052 381.218 346.15 377.959 346.432C375.3 346.635 372.629 346.239 370.144 345.271C368.475 344.624 366.929 343.695 365.574 342.525C365.207 342.201 364.861 341.855 364.537 341.488C364.418 341.37 364.314 341.238 364.227 341.095C364.227 341.095 364.734 341.571 365.698 342.349C367.081 343.432 368.623 344.295 370.269 344.908C372.71 345.801 375.316 346.155 377.907 345.945C381.075 345.655 384.122 344.587 386.778 342.836C389.442 341.088 391.711 338.805 393.442 336.13C394.859 333.943 395.961 331.567 396.717 329.073C397.227 327.376 397.611 325.644 397.868 323.891C398.085 322.543 398.137 321.911 398.178 321.911Z" fill="#263238"/>
<path d="M384.415 348.131C384.242 346.63 384.242 345.114 384.415 343.613C384.429 342.1 384.62 340.594 384.985 339.125C385.162 340.626 385.162 342.143 384.985 343.644C384.975 345.157 384.783 346.664 384.415 348.131V348.131Z" fill="#263238"/>
<path d="M70.6399 368.548C78.1848 371.181 88.0304 368.828 94.4767 364.113C100.923 359.397 105.576 352.64 109.701 345.789C111.453 342.867 113.173 339.82 113.722 336.462C114.272 333.104 113.463 329.311 110.852 327.134C106.799 323.714 100.581 325.445 95.9691 328.078C88.7821 332.264 82.7211 338.136 78.3084 345.186C73.8958 352.237 71.264 360.254 70.6399 368.548" fill="#E8B12B"/>
<path d="M78.7444 386.612C83.2734 392.592 91.0566 395.256 98.56 395.598C106.063 395.94 113.463 393.877 120.469 391.183C123.008 390.209 125.786 388.872 126.687 386.301C126.964 385.305 126.987 384.255 126.756 383.247C126.524 382.239 126.045 381.305 125.361 380.529C123.977 378.989 122.242 377.805 120.303 377.078C113.28 374.279 105.533 373.86 98.2491 375.886C90.9944 377.762 84.6621 381.969 78.7755 386.612" fill="#E8B12B"/>
<path d="M70.5259 336.213C76.7442 336.337 81.5012 330.865 84.3305 325.29C88.2622 317.5 89.5674 308.647 88.0511 300.054C87.4811 296.862 86.2789 293.421 83.4185 291.887C80.558 290.353 76.7338 291.348 74.2983 293.576C71.8628 295.804 70.588 298.965 69.5517 302.116C66.1938 312.967 66.9192 325.435 70.5155 336.213" fill="#E8B12B"/>
<path d="M50.0055 370.766C60.6595 352.64 62.4421 330.461 56.1409 310.397C55.1045 307.143 53.1976 303.412 49.7879 303.194C46.0154 302.956 43.6525 307.163 42.6161 310.791C38.9577 323.538 39.735 337.063 40.5433 350.298C41.0408 358.444 43.839 365.418 50.0055 370.766Z" fill="#E8B12B"/>
<path d="M38.9266 378.228C36.9428 372.017 33.5908 366.329 29.1175 361.585C24.6442 356.841 19.1635 353.161 13.0792 350.816C10.2498 349.779 6.65359 349.147 4.53937 351.303C2.42515 353.458 3.10916 356.982 4.43573 359.594C6.58105 363.884 10.0633 367.325 13.5352 370.621C16.6443 373.626 19.9608 376.642 23.9612 378.383C27.9616 380.125 35.2785 380.57 38.9266 378.197" fill="#E8B12B"/>
<path d="M104.975 331.653L104.789 331.819L104.208 332.264L101.98 333.933L100.363 335.125C99.7726 335.57 99.1715 336.099 98.4979 336.638C97.1817 337.736 95.6271 338.928 94.0518 340.421L91.5437 342.701C90.6732 343.499 89.8441 344.4 88.9321 345.292C87.0977 347.054 85.3254 349.116 83.4185 351.241C79.3995 355.957 75.728 360.958 72.4328 366.206C69.213 371.507 66.3764 377.031 63.9449 382.736C62.9085 385.4 61.8721 387.918 61.0948 390.333C60.701 391.535 60.2657 392.696 59.9444 393.826L59.022 397.09C58.3898 399.163 57.9857 401.091 57.6333 402.759C57.4467 403.599 57.2498 404.376 57.1047 405.091L56.7627 407.081C56.5555 408.242 56.3896 409.154 56.2653 409.817C56.2134 410.107 56.1616 410.346 56.1305 410.532C56.1183 410.615 56.0939 410.695 56.058 410.77C56.0534 410.688 56.0534 410.605 56.058 410.522C56.058 410.335 56.0891 410.097 56.1513 409.807C56.2445 409.133 56.3793 408.211 56.5451 407.05C56.6384 406.438 56.742 405.775 56.856 405.05C56.97 404.324 57.1669 403.547 57.3327 402.697C57.7058 401.018 58.0478 399.08 58.6593 396.997C58.9391 395.961 59.2397 394.852 59.5506 393.712C59.8615 392.572 60.2864 391.411 60.6803 390.198C61.4265 387.752 62.4628 385.234 63.4992 382.56C68.25 371.028 74.8445 360.345 83.0247 350.93C84.9523 348.805 86.7453 346.784 88.6004 345.002C89.5124 344.11 90.3623 343.209 91.2328 342.421L93.7823 340.151C95.368 338.669 96.8915 337.498 98.2802 336.42C98.9642 335.881 99.5757 335.384 100.177 334.938L101.825 333.767L104.115 332.171L104.716 331.767C104.892 331.684 104.965 331.643 104.975 331.653Z" fill="#263238"/>
<path d="M119.08 381.907C118.832 381.888 118.586 381.846 118.345 381.783C117.868 381.7 117.184 381.513 116.272 381.368C106.568 379.437 96.5267 380.089 87.154 383.26C77.7814 386.43 69.4061 392.007 62.8671 399.433C61.1436 401.37 59.5509 403.419 58.0997 405.568C57.5608 406.325 57.2084 406.936 56.9389 407.34C56.8164 407.556 56.6704 407.757 56.5037 407.941C56.6012 407.715 56.7155 407.497 56.8457 407.288C57.0944 406.874 57.426 406.252 57.9339 405.464C59.3284 403.276 60.8874 401.197 62.5976 399.246C68.2327 392.683 75.3281 387.533 83.3141 384.208C91.3001 380.884 99.9543 379.478 108.582 380.104C111.183 380.278 113.768 380.649 116.313 381.213C117.215 381.399 117.899 381.607 118.386 381.731C118.623 381.767 118.855 381.826 119.08 381.907V381.907Z" fill="#263238"/>
<path d="M79.7393 299.111C79.7393 299.111 79.7393 299.204 79.7393 299.39C79.7393 299.577 79.6357 299.867 79.5631 300.209C79.3973 300.955 79.1589 302.002 78.8687 303.318C78.2573 306.023 77.3142 309.93 76.1431 314.719C73.7905 324.367 70.3808 337.654 66.8156 352.381C65.0538 359.76 63.4577 366.797 62.0793 373.212C60.7009 379.627 59.5713 385.431 58.7215 390.323C58.2551 392.758 57.9131 394.976 57.5814 396.924C57.2498 398.873 56.9907 400.541 56.7938 401.92C56.5969 403.298 56.4207 404.324 56.2963 405.081C56.2445 405.412 56.1927 405.682 56.1616 405.9C56.1481 405.995 56.1238 406.089 56.089 406.179C56.0839 406.083 56.0839 405.986 56.089 405.889C56.089 405.682 56.089 405.402 56.1719 405.06C56.2756 404.304 56.4103 403.236 56.5761 401.889C56.742 400.541 56.9803 398.78 57.2809 396.883C57.5814 394.986 57.9131 392.737 58.3173 390.261C59.1256 385.358 60.2449 379.544 61.5715 373.119C62.8981 366.693 64.5148 359.646 66.2767 352.267C69.8315 337.54 73.3034 324.284 75.7285 314.636C76.9411 309.848 77.9256 305.961 78.6096 303.235C78.9517 301.919 79.2108 300.883 79.4077 300.126L79.6253 299.328C79.6554 299.252 79.6936 299.179 79.7393 299.111V299.111Z" fill="#263238"/>
<path d="M55.2703 404.822C55.2433 404.751 55.2225 404.678 55.2081 404.604L55.0527 403.951C54.9283 403.329 54.7521 402.49 54.5345 401.422C54.0785 399.225 53.4981 396.044 52.8037 392.095C51.4357 384.177 49.8604 373.222 48.824 361.035C48.3369 354.941 48.0675 349.126 47.9535 343.831C47.8395 338.535 47.9535 333.757 48.0778 329.756C48.0778 327.756 48.254 325.953 48.3369 324.367C48.4198 322.782 48.5338 321.414 48.6375 320.294C48.7411 319.175 48.8137 318.356 48.8758 317.724C48.8758 317.455 48.8758 317.237 48.9484 317.061C48.9386 316.985 48.9386 316.908 48.9484 316.833C48.9593 316.908 48.9593 316.985 48.9484 317.061C48.9484 317.247 48.9484 317.465 48.9484 317.734C48.9484 318.367 48.8655 319.227 48.8033 320.305C48.7411 321.382 48.6478 322.792 48.596 324.378C48.5442 325.963 48.4198 327.767 48.3991 329.767C48.2747 333.767 48.2644 338.535 48.3991 343.82C48.5338 349.106 48.824 354.909 49.3111 360.993C50.3475 373.16 51.8606 384.104 53.1457 392.002C53.7779 395.95 54.3272 399.142 54.7107 401.329C54.8972 402.365 55.0423 403.246 55.146 403.868C55.146 404.127 55.2185 404.345 55.2496 404.532C55.2825 404.625 55.2896 404.725 55.2703 404.822V404.822Z" fill="#263238"/>
<path d="M56.0787 407.081C55.973 406.881 55.8829 406.673 55.8093 406.459C55.6227 405.993 55.3947 405.423 55.1045 404.635C54.9491 404.231 54.7833 403.796 54.6071 403.309C54.4309 402.821 54.1614 402.272 53.9231 401.785L53.1354 400.023C52.866 399.391 52.5032 398.769 52.1716 398.085C51.8399 397.401 51.4565 396.707 51.1352 396.012C50.8139 395.318 50.2854 394.562 49.8397 393.784C48.9795 392.23 47.8706 390.675 46.8031 388.975C44.3274 385.408 41.6492 381.986 38.7815 378.726C35.8741 375.498 32.8023 372.423 29.5784 369.512C28.0446 368.217 26.6455 366.932 25.2256 365.843L23.215 364.237L21.2977 362.827C20.0851 361.905 18.9555 361.138 17.9502 360.475C16.9449 359.812 16.0951 359.21 15.3696 358.775L13.7218 357.739C13.5177 357.634 13.3294 357.502 13.1621 357.345C13.3702 357.433 13.5711 357.537 13.7632 357.656L15.4732 358.62C16.2091 359.034 17.1004 359.584 18.1057 360.247C19.1109 360.91 20.2821 361.646 21.505 362.548L23.443 363.936L25.5158 365.532C26.946 366.569 28.3659 367.885 29.9101 369.17C33.1886 372.072 36.3026 375.155 39.2375 378.404C42.1255 381.69 44.8079 385.152 47.2695 388.768C48.3059 390.478 49.4355 392.053 50.275 393.629L51.5601 395.888C51.9228 396.624 52.2856 397.339 52.5965 398.023C52.9074 398.707 53.2805 399.35 53.5396 399.982C53.7987 400.614 54.0578 401.205 54.2962 401.764L54.9387 403.319C55.1045 403.809 55.26 404.255 55.4051 404.656L56.0166 406.521C56.0553 406.705 56.0761 406.893 56.0787 407.081Z" fill="#263238"/>
<path d="M101.016 352.681C101.016 352.754 99.7312 352.754 97.6584 352.868C92.2514 353.158 86.9078 354.172 81.7707 355.884C79.8015 356.537 78.5993 357.013 78.5682 356.92C78.817 356.739 79.0889 356.593 79.3766 356.485C79.8948 356.236 80.6825 355.904 81.6567 355.531C84.2114 354.576 86.843 353.841 89.5228 353.334C92.1983 352.819 94.9135 352.538 97.6377 352.495C98.6741 352.495 99.5343 352.495 100.115 352.546C100.42 352.544 100.725 352.59 101.016 352.681V352.681Z" fill="#263238"/>
<path d="M109.059 391.929C107.889 389.545 106.416 387.322 104.675 385.317C102.821 383.435 100.731 381.801 98.4564 380.456C99.2225 380.653 99.9509 380.976 100.612 381.41C103.955 383.335 106.639 386.225 108.312 389.701C108.675 390.401 108.926 391.152 109.059 391.929Z" fill="#263238"/>
<path d="M81.6566 313.838C81.7499 313.952 79.7911 315.91 77.6562 318.522C75.5212 321.134 73.9874 323.466 73.863 323.383C74.742 321.502 75.8868 319.756 77.2624 318.201C78.508 316.541 79.9882 315.071 81.6566 313.838V313.838Z" fill="#263238"/>
<path d="M75.2207 302.728C76.0252 305.492 76.5086 308.34 76.6613 311.216C76.1777 309.855 75.8508 308.443 75.6871 307.008C75.3621 305.605 75.2055 304.168 75.2207 302.728V302.728Z" fill="#263238"/>
<path d="M55.291 337.602C54.4073 339.858 53.3684 342.05 52.1819 344.162C51.1422 346.353 49.951 348.469 48.6167 350.494C49.5027 348.239 50.5415 346.048 51.7258 343.934C52.7655 341.743 53.9567 339.627 55.291 337.602V337.602Z" fill="#263238"/>
<path d="M43.4244 325.766C44.4491 327.264 45.3337 328.853 46.0672 330.513C46.9496 332.097 47.6851 333.759 48.2643 335.477C47.2397 333.979 46.3551 332.391 45.6216 330.731C44.7412 329.145 44.0059 327.484 43.4244 325.766V325.766Z" fill="#263238"/>
<path d="M26.0236 366.258C26.0236 366.403 23.8782 365.988 21.2355 365.812C18.5927 365.636 16.4474 365.729 16.437 365.584C18.0213 365.206 19.6605 365.115 21.2769 365.315C22.9027 365.344 24.5102 365.663 26.0236 366.258Z" fill="#263238"/>
<path d="M37.9005 402.065L43.8286 433.25C44.019 434.249 44.5515 435.15 45.3346 435.799C46.1177 436.447 47.1023 436.803 48.1193 436.804H65.6445C66.6799 436.804 67.6814 436.435 68.4709 435.766C69.2604 435.096 69.7866 434.167 69.9558 433.146L75.1378 402.054L37.9005 402.065Z" fill="#263238"/>
<path d="M39.8282 412.201H73.3345L75.1067 402.065H37.9005L39.8282 412.201Z" fill="#455A64"/>
<path d="M39.8282 412.201L40.533 415.901H72.8163L73.3345 412.201H39.8282Z" fill="#FAFAFA"/>
</svg>
